<svg width="20" height="20" viewBox="0 0 20 20" fill="none" xmlns="http://www.w3.org/2000/svg">
<path d="M9.8 11H13C13.2833 11 13.5208 10.9042 13.7125 10.7125C13.9042 10.5208 14 10.2833 14 10C14 9.71667 13.9042 9.47917 13.7125 9.2875C13.5208 9.09583 13.2833 9 13 9H9.8L10.7 8.1C10.8833 7.91667 10.975 7.68333 10.975 7.4C10.975 7.11667 10.8833 6.88333 10.7 6.7C10.5167 6.51667 10.2833 6.425 10 6.425C9.71667 6.425 9.48333 6.51667 9.3 6.7L6.7 9.3C6.5 9.5 6.4 9.73333 6.4 10C6.4 10.2667 6.5 10.5 6.7 10.7L9.3 13.3C9.48333 13.4833 9.71667 13.575 10 13.575C10.2833 13.575 10.5167 13.4833 10.7 13.3C10.8833 13.1167 10.975 12.8833 10.975 12.6C10.975 12.3167 10.8833 12.0833 10.7 11.9L9.8 11ZM10 20C8.61667 20 7.31667 19.7375 6.1 19.2125C4.88333 18.6875 3.825 17.975 2.925 17.075C2.025 16.175 1.3125 15.1167 0.7875 13.9C0.2625 12.6833 0 11.3833 0 10C0 8.61667 0.2625 7.31667 0.7875 6.1C1.3125 4.88333 2.025 3.825 2.925 2.925C3.825 2.025 4.88333 1.3125 6.1 0.7875C7.31667 0.2625 8.61667 0 10 0C11.3833 0 12.6833 0.2625 13.9 0.7875C15.1167 1.3125 16.175 2.025 17.075 2.925C17.975 3.825 18.6875 4.88333 19.2125 6.1C19.7375 7.31667 20 8.61667 20 10C20 11.3833 19.7375 12.6833 19.2125 13.9C18.6875 15.1167 17.975 16.175 17.075 17.075C16.175 17.975 15.1167 18.6875 13.9 19.2125C12.6833 19.7375 11.3833 20 10 20ZM10 18C12.2333 18 14.125 17.225 15.675 15.675C17.225 14.125 18 12.2333 18 10C18 7.76667 17.225 5.875 15.675 4.325C14.125 2.775 12.2333 2 10 2C7.76667 2 5.875 2.775 4.325 4.325C2.775 5.875 2 7.76667 2 10C2 12.2333 2.775 14.125 4.325 15.675C5.875 17.225 7.76667 18 10 18Z" fill="#2E5E56"/>
</svg>
