<svg width="276" height="189" viewBox="0 0 276 189" fill="none" xmlns="http://www.w3.org/2000/svg">
<path d="M226.924 72.1014C219.158 66.8695 209.917 65 203.862 65C198.193 65 189.845 65.8836 182.288 70.1388C177.701 72.6798 173.863 76.3831 171.159 80.8769C167.955 86.1832 166.225 92.7544 166.002 100.386C165.985 100.95 166.081 101.512 166.287 102.038C166.492 102.564 166.802 103.043 167.197 103.446C167.591 103.855 168.064 104.18 168.586 104.401C169.109 104.622 169.671 104.736 170.239 104.734H185.12C186.137 104.727 187.118 104.357 187.886 103.69C188.653 103.023 189.157 102.103 189.306 101.097C189.966 96.4469 192.738 88.5829 203.867 88.4015C212.345 88.262 215.837 94.4007 216.944 97.0469C218.748 101.353 218.288 106.455 215.712 110.701C211.749 117.212 204.471 118.216 200.481 118.225C198.281 118.232 196.173 119.106 194.615 120.659C193.057 122.212 192.175 124.318 192.161 126.517V142.52C192.163 143.643 192.609 144.72 193.404 145.514C194.198 146.308 195.275 146.755 196.398 146.756H210.884C212.008 146.754 213.084 146.307 213.879 145.513C214.674 144.719 215.122 143.643 215.126 142.52V139.158C215.126 139.118 215.139 139.08 215.163 139.049C215.186 139.017 215.219 138.993 215.256 138.981C221.021 136.945 226.273 133.676 230.645 129.401C237.964 122.137 241.676 112.752 241.685 101.497C241.676 85.4252 233.649 76.6403 226.924 72.1014Z" fill="#455A64"/>
<path d="M204.351 150.823H203.082C200.207 150.882 197.47 152.065 195.458 154.119C193.445 156.173 192.318 158.934 192.318 161.81C192.318 164.685 193.445 167.446 195.458 169.5C197.47 171.554 200.207 172.737 203.082 172.796H204.351C205.813 172.827 207.266 172.565 208.625 172.026C209.985 171.487 211.223 170.683 212.267 169.66C213.312 168.636 214.142 167.415 214.708 166.067C215.275 164.719 215.566 163.272 215.566 161.81C215.566 160.347 215.275 158.9 214.708 157.552C214.142 156.204 213.312 154.983 212.267 153.959C211.223 152.936 209.985 152.132 208.625 151.593C207.266 151.055 205.813 150.793 204.351 150.823Z" fill="#455A64"/>
<path d="M167.885 44.0897L169.755 37.4297C166.563 32.2425 165.426 26.0488 166.567 20.0659C167.709 14.0829 171.048 8.7434 175.926 5.0967C180.805 1.44999 186.871 -0.240166 192.933 0.358391C198.994 0.956949 204.613 3.80094 208.684 8.33142C212.755 12.8619 214.984 18.7512 214.934 24.842C214.884 30.9327 212.557 36.7844 208.412 41.247C204.266 45.7095 198.601 48.4602 192.531 48.9585C186.46 49.4568 180.423 47.6666 175.605 43.9397L167.885 44.0897Z" fill="#FAFAFA"/>
<path d="M167.885 44.0897H168.405H169.895L175.595 43.9397L175.505 44.1197L174.975 43.4397L175.665 43.9597C178.844 46.3855 182.569 47.9957 186.515 48.6497C190.845 49.3538 195.286 48.8679 199.361 47.244C203.437 45.62 206.995 42.919 209.655 39.4297C213.047 35.0222 214.81 29.5767 214.644 24.0172C214.478 18.4578 212.394 13.127 208.745 8.92967C206.165 5.93158 202.879 3.62227 199.185 2.20967C195.662 0.866543 191.878 0.349945 188.125 0.699674C184.59 1.05263 181.176 2.17928 178.125 3.99967C175.379 5.64464 172.986 7.81689 171.084 10.3912C169.182 12.9654 167.808 15.8908 167.042 18.9985C166.276 22.1063 166.133 25.3349 166.621 28.4983C167.109 31.6616 168.218 34.6971 169.885 37.4297C169.265 39.5297 168.795 41.1697 168.455 42.2997C168.295 42.8497 168.165 43.2997 168.075 43.5797L167.935 44.0297C167.952 43.8872 167.982 43.7466 168.025 43.6097L168.355 42.3497C168.665 41.1897 169.115 39.5197 169.685 37.3497V37.4297C167.553 34.016 166.302 30.1262 166.045 26.1097C165.663 19.7699 167.742 13.5272 171.85 8.68333C175.958 3.83942 181.778 0.768088 188.095 0.109674C191.925 -0.248891 195.787 0.274483 199.385 1.63967C204.915 3.76313 209.494 7.81045 212.281 13.0385C215.068 18.2665 215.875 24.3243 214.555 30.0997C213.462 34.9048 210.946 39.269 207.335 42.6227C203.725 45.9764 199.187 48.1639 194.315 48.8997C191.019 49.4173 187.652 49.2493 184.424 48.4062C181.196 47.5631 178.176 46.063 175.555 43.9997L175.715 43.8397L175.845 44.0197H167.885V44.0897Z" fill="#263238"/>
<path d="M197.965 25.1499C197.965 25.6404 198.11 26.1199 198.383 26.5277C198.655 26.9356 199.043 27.2534 199.496 27.4411C199.949 27.6289 200.448 27.678 200.929 27.5823C201.41 27.4866 201.852 27.2504 202.198 26.9035C202.545 26.5567 202.781 26.1148 202.877 25.6338C202.973 25.1527 202.924 24.654 202.736 24.2009C202.548 23.7477 202.23 23.3604 201.823 23.0879C201.415 22.8154 200.935 22.6699 200.445 22.6699C199.787 22.6699 199.156 22.9312 198.691 23.3963C198.226 23.8614 197.965 24.4922 197.965 25.1499Z" fill="#FF725E"/>
<path d="M188.055 25.1499C188.055 25.6404 188.2 26.1199 188.473 26.5277C188.745 26.9356 189.132 27.2534 189.586 27.4411C190.039 27.6289 190.537 27.678 191.019 27.5823C191.5 27.4866 191.941 27.2504 192.288 26.9035C192.635 26.5567 192.871 26.1148 192.967 25.6338C193.063 25.1527 193.014 24.654 192.826 24.2009C192.638 23.7477 192.32 23.3604 191.913 23.0879C191.505 22.8154 191.025 22.6699 190.535 22.6699C189.877 22.6699 189.246 22.9312 188.781 23.3963C188.316 23.8614 188.055 24.4922 188.055 25.1499Z" fill="#FF725E"/>
<path d="M178.165 23.91C177.919 24.3349 177.805 24.8233 177.837 25.3131C177.869 25.803 178.046 26.2724 178.345 26.6618C178.644 27.0512 179.052 27.3431 179.517 27.5006C179.981 27.658 180.483 27.674 180.957 27.5464C181.431 27.4187 181.856 27.1533 182.179 26.7837C182.502 26.414 182.708 25.9568 182.772 25.47C182.835 24.9831 182.752 24.4885 182.533 24.0488C182.315 23.6091 181.971 23.2441 181.545 23C181.264 22.8371 180.953 22.7314 180.63 22.689C180.308 22.6466 179.98 22.6683 179.666 22.7529C179.352 22.8375 179.058 22.9832 178.8 23.1817C178.543 23.3803 178.327 23.6278 178.165 23.91Z" fill="#FF725E"/>
<path d="M129.663 161.729C129.663 161.729 136.308 156.311 139.576 154.444C142.844 152.578 148.414 151.977 148.414 151.977L158.023 160.026C158.023 160.026 152.855 171.299 151.812 171.982C150.879 172.392 149.863 172.651 148.816 172.747C147.577 172.918 146.306 172.795 145.146 172.392L144.114 172.028C144.114 172.028 136.742 171.646 136.395 170.434C136.395 170.434 132.79 170.89 131.454 169.788C130.763 169.144 130.278 168.364 130.043 167.52L137.535 165.035L139.435 161.392C139.435 161.392 134.256 163.86 132.214 164.288C130.173 164.716 128.208 162.804 129.663 161.729Z" fill="#F5AB8A"/>
<path d="M115.157 166.729C115.157 166.729 108.513 161.311 105.244 159.444C101.976 157.578 96.4063 156.977 96.4063 156.977L86.7973 165.026C86.7973 165.026 91.9655 176.299 93.0079 176.982C93.9412 177.392 94.9575 177.651 96.0046 177.747C97.2434 177.918 98.5144 177.795 99.6744 177.392L100.706 177.028C100.706 177.028 108.078 176.646 108.426 175.434C108.426 175.434 112.03 175.89 113.366 174.788C114.057 174.144 114.542 173.364 114.777 172.52L107.286 170.035L105.386 166.392C105.386 166.392 110.565 168.86 112.606 169.288C114.647 169.716 116.612 167.804 115.157 166.729Z" fill="#F5AB8A"/>
<path d="M153.886 123.305L148.457 152.043L158.066 160.093C158.066 160.093 162.952 150.258 164.852 145.086C166.861 139.623 171.66 127 171.66 127C171.66 127 161.258 121.693 153.886 123.305Z" fill="#F5AB8A"/>
<path d="M90.9345 128.305L96.3633 157.043L86.7543 165.093C86.7543 165.093 81.8684 155.258 79.9683 150.086C77.9596 144.623 73.1602 132 73.1602 132C73.1602 132 83.5622 126.693 90.9345 128.305Z" fill="#F5AB8A"/>
<path d="M121.969 16.1495C125.079 16.8095 127.389 20.0795 127.629 22.9895C127.629 22.9895 127.369 22.4995 129.549 22.2595C130.48 22.112 131.431 22.1585 132.343 22.3959C133.255 22.6334 134.108 23.0568 134.849 23.6395C136.169 24.8395 138.989 28.5795 137.219 31.8895C140.559 33.8895 137.729 44.1395 136.799 46.6695C135.479 50.3095 134.799 50.0995 131.319 51.8295C125.739 54.5995 124.389 51.2395 118.409 49.5095C107.339 46.2895 95.7291 45.5795 84.2291 44.8895C81.3391 38.8295 84.3891 29.9695 90.2291 26.7595C96.0691 23.5495 101.949 25.4195 109.289 21.0595C109.339 21.0595 116.399 14.9795 121.969 16.1495Z" fill="#141C51"/>
<path d="M142.219 65.7486C141.069 58.5486 137.419 49.5486 133.839 40.5586C130.619 32.4686 119.019 27.1286 111.069 30.6986L89.7595 43.0586L90.2994 47.3487L101.219 77.3487L106.679 98.9587L133.369 96.8886L130.029 84.2586C130.029 84.2586 144.539 80.2386 142.219 65.7486Z" fill="#F5AB8A"/>
<path d="M106.45 68.9735C106.464 69.0057 106.471 69.0405 106.473 69.076C106.474 69.1115 106.469 69.147 106.458 69.1803C106.447 69.2137 106.43 69.2443 106.409 69.2704C106.387 69.2966 106.361 69.3177 106.331 69.3325C106.299 69.3418 106.266 69.344 106.233 69.339C106.2 69.3339 106.169 69.3218 106.14 69.3031C106.112 69.2845 106.087 69.2598 106.067 69.2305C106.048 69.2012 106.033 69.1678 106.025 69.1323C106.011 69.1003 106.002 69.0654 106 69.0296C105.999 68.9939 106.003 68.9581 106.014 68.9244C106.026 68.8908 106.043 68.86 106.065 68.8341C106.087 68.8081 106.114 68.7874 106.144 68.7733C106.208 68.7563 106.276 68.7677 106.334 68.8051C106.391 68.8424 106.432 68.9028 106.45 68.9735Z" fill="#FA8E5D" stroke="#FA8E5D" stroke-width="0.257123"/>
<path d="M111.91 64.7613C111.91 64.697 111.888 64.6351 111.847 64.5887C111.849 64.556 111.844 64.5233 111.832 64.4933C111.82 64.4632 111.802 64.4368 111.779 64.4161C111.783 64.3351 111.768 64.2542 111.734 64.1824C111.7 64.1105 111.648 64.0504 111.585 64.0088C111.535 63.9742 111.479 64.0502 111.448 64.0916C111.332 64.2553 111.27 64.457 111.27 64.6646C111.27 64.8723 111.332 65.0739 111.448 65.2377C111.448 65.2377 111.498 65.2377 111.51 65.2377C111.555 65.2112 111.597 65.1788 111.635 65.141C111.709 65.1129 111.774 65.0623 111.822 64.9951C111.871 64.9279 111.901 64.8468 111.91 64.7613Z" fill="#FA8E5D" stroke="#FA8E5D" stroke-width="0.257123"/>
<path d="M113.658 71.3919C113.605 71.3746 113.549 71.3746 113.496 71.3919C113.416 71.4156 113.344 71.4663 113.29 71.5368C113.209 71.5941 113.144 71.6754 113.103 71.7716C113.084 71.8208 113.074 71.8736 113.074 71.9269C113.074 71.9803 113.084 72.0331 113.103 72.0823C113.137 72.1645 113.181 72.2412 113.234 72.3101C113.258 72.3533 113.292 72.3884 113.333 72.4115C113.373 72.4346 113.419 72.4449 113.465 72.4413C113.536 72.4195 113.6 72.3774 113.652 72.3192C113.703 72.261 113.74 72.1888 113.758 72.1099C113.777 72.0494 113.777 71.9839 113.758 71.9235C113.761 71.8982 113.761 71.8728 113.758 71.8475C113.794 71.8248 113.821 71.7878 113.833 71.744C113.85 71.7087 113.858 71.6695 113.858 71.6298C113.858 71.5901 113.848 71.5511 113.831 71.5163C113.814 71.4815 113.789 71.4519 113.759 71.4302C113.729 71.4085 113.694 71.3953 113.658 71.3919Z" fill="#FA8E5D" stroke="#FA8E5D" stroke-width="0.257123"/>
<path d="M112.008 68.8684C111.955 68.8512 111.899 68.8512 111.846 68.8684C111.765 68.8922 111.693 68.9428 111.64 69.0134C111.558 69.0706 111.493 69.152 111.452 69.2481C111.433 69.2973 111.424 69.3501 111.424 69.4035C111.424 69.4568 111.433 69.5097 111.452 69.5588C111.486 69.6411 111.53 69.7178 111.583 69.7867C111.607 69.8299 111.642 69.8649 111.682 69.8881C111.723 69.9112 111.769 69.9215 111.814 69.9178C111.885 69.8961 111.95 69.8539 112.002 69.7957C112.053 69.7376 112.09 69.6654 112.108 69.5864C112.127 69.526 112.127 69.4605 112.108 69.4C112.11 69.3748 112.11 69.3493 112.108 69.3241C112.144 69.3014 112.171 69.2644 112.183 69.2205C112.2 69.1853 112.208 69.1461 112.208 69.1064C112.207 69.0666 112.198 69.0277 112.181 68.9928C112.163 68.958 112.138 68.9285 112.108 68.9068C112.078 68.8851 112.044 68.8719 112.008 68.8684Z" fill="#FA8E5D" stroke="#FA8E5D" stroke-width="0.257123"/>
<path d="M112.127 67.1059C112.1 67.0729 112.065 67.049 112.027 67.0369V66.9609H111.883H111.827C111.8 66.9728 111.777 66.9918 111.758 67.0162L111.702 67.0852C111.653 67.1585 111.621 67.2438 111.608 67.3338C111.602 67.3726 111.602 67.4123 111.608 67.4511C111.599 67.4849 111.599 67.5209 111.608 67.5547C111.615 67.5811 111.628 67.6051 111.646 67.6237C111.664 67.6318 111.684 67.6318 111.702 67.6237L111.765 67.6721C111.81 67.6857 111.857 67.6858 111.902 67.6725C111.947 67.6591 111.988 67.6328 112.021 67.5961C112.102 67.525 112.16 67.4251 112.183 67.313C112.187 67.2761 112.184 67.2387 112.174 67.2031C112.164 67.1676 112.148 67.1345 112.127 67.1059Z" fill="#FA8E5D" stroke="#FA8E5D" stroke-width="0.257123"/>
<path d="M115.379 67.2973C115.352 67.2644 115.317 67.2404 115.279 67.2283V67.1523H115.135H115.079C115.052 67.1642 115.029 67.1832 115.01 67.2076L114.954 67.2766C114.905 67.3499 114.873 67.4352 114.86 67.5252C114.854 67.564 114.854 67.6037 114.86 67.6425C114.851 67.6763 114.851 67.7123 114.86 67.7461C114.867 67.7726 114.88 67.7965 114.898 67.8151C114.916 67.8232 114.936 67.8232 114.954 67.8151L115.017 67.8635C115.061 67.8771 115.109 67.8772 115.154 67.8639C115.199 67.8505 115.24 67.8242 115.273 67.7875C115.354 67.7164 115.412 67.6165 115.435 67.5045C115.439 67.4675 115.436 67.4301 115.426 67.3946C115.416 67.359 115.4 67.3259 115.379 67.2973Z" fill="#FA8E5D" stroke="#FA8E5D" stroke-width="0.257123"/>
<path d="M109.377 69.8579C109.35 69.8249 109.315 69.801 109.277 69.7888V69.7129H109.133H109.077C109.05 69.7248 109.027 69.7437 109.008 69.7681L108.952 69.8372C108.903 69.9105 108.871 69.9957 108.858 70.0857C108.852 70.1245 108.852 70.1643 108.858 70.2031C108.849 70.2368 108.849 70.2729 108.858 70.3066C108.865 70.3331 108.878 70.357 108.896 70.3757C108.914 70.3837 108.934 70.3837 108.952 70.3757L109.015 70.424C109.06 70.4376 109.107 70.4378 109.152 70.4244C109.197 70.4111 109.238 70.3847 109.271 70.3481C109.352 70.277 109.41 70.1771 109.433 70.065C109.437 70.0281 109.434 69.9907 109.424 69.9551C109.414 69.9195 109.398 69.8864 109.377 69.8579Z" fill="#FA8E5D" stroke="#FA8E5D" stroke-width="0.257123"/>
<path d="M109.377 64.7231C109.35 64.6901 109.315 64.6662 109.277 64.6541V64.5781H109.133H109.077C109.05 64.59 109.027 64.609 109.008 64.6333L108.952 64.7024C108.903 64.7757 108.871 64.861 108.858 64.9509C108.852 64.9897 108.852 65.0295 108.858 65.0683C108.849 65.1021 108.849 65.1381 108.858 65.1719C108.865 65.1983 108.878 65.2223 108.896 65.2409C108.914 65.249 108.934 65.249 108.952 65.2409L109.015 65.2892C109.06 65.3029 109.107 65.303 109.152 65.2897C109.197 65.2763 109.238 65.25 109.271 65.2133C109.352 65.1422 109.41 65.0423 109.433 64.9302C109.437 64.8933 109.434 64.8559 109.424 64.8203C109.414 64.7847 109.398 64.7517 109.377 64.7231Z" fill="#FA8E5D" stroke="#FA8E5D" stroke-width="0.257123"/>
<path d="M113.989 64.7373C113.977 64.6731 113.947 64.6147 113.903 64.5702C113.859 64.5257 113.804 64.4972 113.745 64.4887C113.659 64.4846 113.573 64.5111 113.501 64.5645C113.43 64.618 113.375 64.6954 113.346 64.7856C113.327 64.8193 113.314 64.8569 113.308 64.896C113.296 64.9551 113.296 65.0165 113.308 65.0755C113.306 65.1008 113.306 65.1262 113.308 65.1515C113.312 65.1636 113.319 65.1743 113.328 65.1828C113.336 65.1912 113.347 65.1971 113.358 65.1998C113.393 65.2064 113.429 65.2064 113.464 65.1998C113.493 65.207 113.523 65.207 113.552 65.1998C113.637 65.1934 113.718 65.1571 113.783 65.0963C113.862 65.0252 113.919 64.9286 113.945 64.8201C113.968 64.7988 113.983 64.7696 113.989 64.7373Z" fill="#FA8E5D" stroke="#FA8E5D" stroke-width="0.257123"/>
<path d="M109.624 72.009C109.527 71.9782 109.425 71.9788 109.328 72.0106C109.232 72.0424 109.146 72.1042 109.08 72.1885C109.007 72.2649 108.959 72.3659 108.943 72.4758C108.927 72.5857 108.945 72.6983 108.993 72.7961C108.987 72.8303 108.987 72.8654 108.993 72.8996C109.03 72.9913 109.097 73.0645 109.18 73.1052C109.263 73.146 109.356 73.1515 109.443 73.1206C109.574 73.0635 109.684 72.9588 109.755 72.8237C109.813 72.714 109.847 72.5912 109.855 72.4647C109.859 72.3724 109.84 72.2806 109.799 72.2C109.758 72.1194 109.697 72.0532 109.624 72.009Z" fill="#FA8E5D" stroke="#FA8E5D" stroke-width="0.257123"/>
<path d="M132.51 68.6459C132.526 68.6824 132.535 68.7219 132.536 68.7622C132.538 68.8025 132.532 68.8427 132.52 68.8805C132.507 68.9184 132.488 68.9531 132.463 68.9827C132.439 69.0124 132.409 69.0363 132.376 69.0531C132.34 69.0637 132.302 69.0662 132.265 69.0605C132.227 69.0547 132.192 69.0409 132.159 69.0198C132.127 68.9987 132.099 68.9707 132.076 68.9374C132.054 68.9042 132.038 68.8663 132.029 68.826C132.012 68.7898 132.003 68.7501 132 68.7096C131.998 68.669 132.004 68.6284 132.016 68.5903C132.029 68.5521 132.048 68.5173 132.074 68.4878C132.099 68.4583 132.129 68.4348 132.163 68.4188C132.236 68.3996 132.314 68.4126 132.378 68.4549C132.443 68.4973 132.49 68.5658 132.51 68.6459Z" fill="#FA8E5D" stroke="#FA8E5D" stroke-width="0.257123"/>
<path d="M138.703 63.8635C138.703 63.7906 138.678 63.7204 138.632 63.6677C138.634 63.6306 138.628 63.5935 138.614 63.5595C138.601 63.5254 138.58 63.4954 138.554 63.4719C138.559 63.3801 138.542 63.2883 138.503 63.2068C138.464 63.1253 138.406 63.0572 138.335 63.0099C138.278 62.9708 138.214 63.0569 138.179 63.1039C138.048 63.2896 137.977 63.5184 137.977 63.7538C137.977 63.9893 138.048 64.2181 138.179 64.4038C138.179 64.4038 138.235 64.4038 138.25 64.4038C138.301 64.3738 138.348 64.337 138.391 64.2942C138.475 64.2622 138.548 64.2049 138.603 64.1286C138.659 64.0524 138.693 63.9605 138.703 63.8635Z" fill="#FA8E5D" stroke="#FA8E5D" stroke-width="0.257123"/>
<path d="M138.815 68.5284C138.755 68.5088 138.691 68.5088 138.631 68.5284C138.539 68.5553 138.458 68.6128 138.397 68.6928C138.305 68.7577 138.231 68.85 138.185 68.9591C138.163 69.0148 138.152 69.0747 138.152 69.1352C138.152 69.1958 138.163 69.2557 138.185 69.3114C138.223 69.4047 138.273 69.4917 138.333 69.5699C138.36 69.6188 138.399 69.6586 138.445 69.6849C138.492 69.7111 138.544 69.7228 138.595 69.7186C138.676 69.6939 138.749 69.6462 138.808 69.5802C138.866 69.5142 138.908 69.4323 138.928 69.3428C138.949 69.2742 138.949 69.1999 138.928 69.1313C138.931 69.1027 138.931 69.0738 138.928 69.0452C138.969 69.0195 139 68.9774 139.013 68.9277C139.032 68.8877 139.042 68.8433 139.041 68.7982C139.041 68.7532 139.03 68.709 139.011 68.6695C138.991 68.63 138.963 68.5965 138.929 68.5718C138.895 68.5472 138.856 68.5323 138.815 68.5284Z" fill="#FA8E5D" stroke="#FA8E5D" stroke-width="0.257123"/>
<path d="M138.951 66.518C138.921 66.4806 138.882 66.4534 138.838 66.4396V66.3535H138.675H138.611C138.581 66.367 138.554 66.3885 138.533 66.4162L138.47 66.4945C138.414 66.5776 138.378 66.6743 138.363 66.7764C138.356 66.8204 138.356 66.8655 138.363 66.9095C138.353 66.9478 138.353 66.9886 138.363 67.027C138.37 67.057 138.385 67.0841 138.406 67.1053C138.426 67.1144 138.449 67.1144 138.47 67.1053L138.54 67.1601C138.591 67.1755 138.645 67.1757 138.696 67.1606C138.747 67.1454 138.794 67.1155 138.831 67.0739C138.924 66.9933 138.989 66.88 139.015 66.7529C139.019 66.711 139.016 66.6686 139.005 66.6282C138.994 66.5879 138.976 66.5504 138.951 66.518Z" fill="#FA8E5D" stroke="#FA8E5D" stroke-width="0.257123"/>
<path d="M135.514 66.0726C135.483 66.0352 135.444 66.0081 135.4 65.9943V65.9082H135.238H135.174C135.144 65.9217 135.117 65.9432 135.096 65.9708L135.032 66.0492C134.977 66.1323 134.94 66.229 134.926 66.3311C134.918 66.3751 134.918 66.4202 134.926 66.4642C134.915 66.5025 134.915 66.5433 134.926 66.5816C134.933 66.6117 134.948 66.6388 134.968 66.66C134.989 66.6691 135.012 66.6691 135.032 66.66L135.103 66.7148C135.154 66.7302 135.208 66.7304 135.259 66.7153C135.31 66.7001 135.356 66.6702 135.393 66.6286C135.486 66.548 135.551 66.4347 135.578 66.3076C135.582 66.2657 135.578 66.2233 135.567 66.1829C135.556 66.1426 135.538 66.105 135.514 66.0726Z" fill="#FA8E5D" stroke="#FA8E5D" stroke-width="0.257123"/>
<path d="M135.832 69.641C135.802 69.6036 135.763 69.5764 135.719 69.5627V69.4766H135.556H135.492C135.462 69.49 135.435 69.5116 135.414 69.5392L135.35 69.6175C135.295 69.7007 135.259 69.7974 135.244 69.8994C135.237 69.9434 135.237 69.9885 135.244 70.0325C135.234 70.0708 135.234 70.1117 135.244 70.15C135.251 70.18 135.266 70.2072 135.287 70.2283C135.307 70.2375 135.33 70.2375 135.35 70.2283L135.421 70.2831C135.472 70.2986 135.526 70.2987 135.577 70.2836C135.628 70.2685 135.675 70.2386 135.712 70.197C135.804 70.1163 135.869 70.003 135.896 69.8759C135.9 69.834 135.897 69.7916 135.886 69.7513C135.875 69.7109 135.857 69.6734 135.832 69.641Z" fill="#FA8E5D" stroke="#FA8E5D" stroke-width="0.257123"/>
<path d="M135.832 63.809C135.802 63.7716 135.763 63.7444 135.719 63.7307V63.6445H135.556H135.492C135.462 63.658 135.435 63.6795 135.414 63.7072L135.35 63.7855C135.295 63.8686 135.259 63.9653 135.244 64.0674C135.237 64.1114 135.237 64.1565 135.244 64.2005C135.234 64.2388 135.234 64.2797 135.244 64.318C135.251 64.348 135.266 64.3751 135.287 64.3963C135.307 64.4054 135.33 64.4054 135.35 64.3963L135.421 64.4511C135.472 64.4666 135.526 64.4667 135.577 64.4516C135.628 64.4364 135.675 64.4065 135.712 64.365C135.804 64.2843 135.869 64.171 135.896 64.0439C135.9 64.002 135.897 63.9596 135.886 63.9192C135.875 63.8789 135.857 63.8414 135.832 63.809Z" fill="#FA8E5D" stroke="#FA8E5D" stroke-width="0.257123"/>
<path d="M134.159 53.7686C134.311 54.2278 134.28 54.7281 134.071 55.1644C133.862 55.6007 133.492 55.9392 133.039 56.1086C132.819 56.1994 132.584 56.2456 132.346 56.2443C132.108 56.2431 131.873 56.1945 131.654 56.1014C131.435 56.0083 131.237 55.8726 131.072 55.7021C130.906 55.5317 130.776 55.3299 130.689 55.1086C130.537 54.6494 130.568 54.1491 130.777 53.7128C130.986 53.2765 131.356 52.938 131.809 52.7686C132.029 52.6778 132.264 52.6316 132.502 52.6328C132.74 52.6341 132.975 52.6826 133.194 52.7757C133.412 52.8688 133.61 53.0046 133.776 53.175C133.942 53.3455 134.072 53.5473 134.159 53.7686Z" fill="#141C51"/>
<path d="M133.99 48.1294C133.86 48.3694 132.45 48.7594 130.84 49.9394C129.23 51.1194 128.31 52.4094 128.07 52.4294C127.83 52.4494 128.07 52.1194 128.42 51.5494C129.006 50.7283 129.727 50.0117 130.55 49.4294C131.327 48.8385 132.204 48.3945 133.14 48.1194C133.76 47.9594 134.05 48.0194 133.99 48.1294Z" fill="#141C51"/>
<path d="M118.79 59.0304C118.942 59.4882 118.91 59.9871 118.701 60.4218C118.492 60.8565 118.123 61.193 117.67 61.3604C117.451 61.4525 117.216 61.4996 116.979 61.4989C116.741 61.4982 116.506 61.4498 116.288 61.3565C116.07 61.2632 115.872 61.1269 115.708 60.9558C115.543 60.7847 115.415 60.5822 115.33 60.3604C115.175 59.9026 115.204 59.4022 115.411 58.9654C115.618 58.5286 115.987 58.1897 116.44 58.0204C116.66 57.9284 116.897 57.8816 117.135 57.8828C117.374 57.8841 117.61 57.9332 117.829 58.0275C118.048 58.1217 118.246 58.259 118.412 58.4313C118.577 58.6036 118.705 58.8073 118.79 59.0304Z" fill="#141C51"/>
<path d="M116.789 55.2186C116.569 55.3686 115.139 54.9786 113.159 55.2186C111.179 55.4586 109.749 56.1686 109.529 56.0686C109.309 55.9686 109.639 55.7586 110.259 55.4286C111.164 54.9771 112.143 54.6926 113.149 54.5886C114.121 54.4555 115.108 54.5098 116.059 54.7486C116.679 54.8886 116.899 55.1386 116.789 55.2186Z" fill="#141C51"/>
<path d="M127.35 65.3102C127.35 65.2202 127.41 65.1102 129.26 64.3102C129.73 64.1102 130.17 63.8802 130.17 63.6002C130.17 63.3202 129.86 62.9502 129.49 62.6002L127.16 60.2102C125.857 58.8926 124.663 57.4712 123.59 55.9602C123.78 55.8302 124.59 56.3002 127.86 59.7302L130.14 62.1602C130.45 62.5302 130.92 62.9102 130.85 63.5602C130.811 63.733 130.736 63.8955 130.629 64.0369C130.522 64.1783 130.386 64.2953 130.23 64.3802C129.98 64.5288 129.715 64.6527 129.44 64.7502C127.54 65.4202 127.35 65.3102 127.35 65.3102Z" fill="#141C51"/>
<path d="M130.03 84.209C130.03 84.209 124.48 87.209 113.49 84.659C113.49 84.659 116.49 92.259 131.32 89.089L130.03 84.209Z" fill="#FF9A6C"/>
<path d="M113.68 48.5596C113.68 49.2196 111.87 49.3197 109.94 50.1097C108.01 50.8997 106.54 51.9897 106.15 51.4997C105.97 51.2597 106.15 50.6097 106.63 49.8597C107.281 48.9558 108.181 48.2609 109.22 47.8597C110.221 47.459 111.322 47.382 112.37 47.6397C113.24 47.8897 113.68 48.2496 113.68 48.5596Z" fill="#141C51"/>
<path d="M131.679 42.1298C131.549 42.7698 129.999 42.7998 128.379 43.4398C126.759 44.0798 125.539 44.9898 125.019 44.5998C124.769 44.3998 124.779 43.8098 125.189 43.0998C125.722 42.2093 126.55 41.5335 127.529 41.1898C128.491 40.8231 129.549 40.7949 130.529 41.1098C131.389 41.3898 131.789 41.8198 131.679 42.1298Z" fill="#141C51"/>
<path d="M84.3592 39.0586C84.3592 39.0586 75.8392 41.7586 77.6992 52.0586C79.5592 62.3586 86.5792 69.6586 92.2292 72.5186C97.8792 75.3786 100.949 75.0886 100.949 75.0886L100.329 56.8286L84.3592 39.0586Z" fill="#141C51"/>
<path d="M130.1 33.1403C126.1 29.2403 120.27 27.5003 114.68 27.7103C109.072 28.0802 103.635 29.7952 98.8301 32.7103C94.0542 35.6399 89.5228 38.9507 85.2801 42.6103C84.2801 43.4703 83.1001 44.4603 82.9101 45.8003C82.8577 46.724 83.0401 47.646 83.4401 48.4803L91.6801 70.3003L95.1301 74.2003C97.5301 73.4603 98.9901 71.0603 99.9701 68.7503C103.404 60.564 103.565 51.3719 100.42 43.0703C101.344 43.8696 102.134 44.8115 102.76 45.8603C103.076 46.385 103.514 46.8261 104.036 47.1463C104.558 47.4666 105.149 47.6566 105.76 47.7003C107.76 47.6103 108.69 44.9803 108.37 42.9703C108.05 40.9603 107.05 38.9703 107.45 36.9703C110.241 39.1204 113.482 40.611 116.93 41.3303C118.55 41.6603 120.55 41.6703 121.47 40.3303C121.761 39.819 121.901 39.236 121.874 38.6486C121.847 38.0612 121.655 37.4933 121.32 37.0103C120.639 36.0559 119.784 35.2383 118.8 34.6003C121.883 36.3661 125.414 37.1933 128.96 36.9803C129.348 37.0064 129.737 36.9423 130.096 36.7931C130.455 36.6439 130.775 36.4136 131.03 36.1203C131.68 35.1503 130.91 33.8903 130.1 33.1403Z" fill="#141C51"/>
<path d="M97.1788 65.1504C96.9388 65.1504 87.9188 65.4804 90.9888 73.7804C94.0588 82.0804 101.769 77.2704 101.689 77.0304C101.609 76.7904 97.1788 65.1504 97.1788 65.1504Z" fill="#F5AB8A"/>
<path d="M93.9798 73.4787C93.8998 73.3267 93.8296 73.1697 93.7698 73.0087C93.4817 72.3058 93.3553 71.5471 93.3998 70.7887C93.3832 70.5009 93.4363 70.2133 93.5547 69.9504C93.6731 69.6875 93.8532 69.4571 94.0798 69.2787C94.2285 69.1704 94.4112 69.1189 94.5946 69.1335C94.7781 69.1482 94.9502 69.2281 95.0798 69.3587C95.2798 69.5487 95.2798 69.7287 95.3298 69.7287C95.3798 69.7287 95.4598 69.5287 95.2698 69.2087C95.1464 69.0207 94.9632 68.8798 94.7498 68.8087C94.6045 68.7649 94.4518 68.7503 94.3008 68.7657C94.1498 68.7812 94.0033 68.8264 93.8698 68.8987C93.5608 69.0955 93.3068 69.3676 93.1319 69.6894C92.957 70.0113 92.8668 70.3724 92.8698 70.7387C92.7826 71.5881 92.9027 72.446 93.2198 73.2387C93.8998 74.8887 95.3298 76.1387 96.6598 76.0387C96.9067 76.0216 97.1465 75.9488 97.3612 75.8259C97.5759 75.7029 97.7601 75.533 97.8998 75.3287C98.0798 75.0287 98.0598 74.8287 98.0198 74.8187C97.9798 74.8087 97.9198 74.9787 97.7098 75.1787C97.4235 75.457 97.0391 75.6115 96.6398 75.6087C96.0598 75.4981 95.5161 75.2458 95.0572 74.8741C94.5983 74.5025 94.2385 74.0231 94.0098 73.4787" fill="#FF9A6C"/>
<path d="M127.68 69.259L121.08 67.889C120.99 67.8605 120.894 67.8512 120.799 67.8615C120.704 67.8718 120.613 67.9016 120.53 67.949C120.434 68.0391 120.371 68.1588 120.35 68.289C120.193 69.012 120.232 69.7638 120.462 70.4669C120.692 71.17 121.106 71.799 121.66 72.289C122.198 72.7419 122.855 73.0299 123.552 73.1186C124.249 73.2073 124.957 73.0929 125.59 72.789C126.241 72.4401 126.783 71.9206 127.16 71.2863C127.537 70.652 127.735 69.9269 127.73 69.189L127.68 69.259Z" fill="#FF9A6C"/>
<path d="M127.23 71.8899C127.3 71.8899 126.74 72.9599 125.02 73.3899C124.002 73.6456 122.925 73.4912 122.02 72.9599C121.478 72.6388 121.012 72.2046 120.653 71.6869C120.294 71.1692 120.051 70.5801 119.94 69.9599C119.853 69.6152 119.848 69.2551 119.924 68.9079C120 68.5608 120.156 68.2362 120.38 67.9599C120.517 67.8429 120.676 67.7544 120.848 67.6995C121.02 67.6445 121.2 67.6243 121.38 67.6399C121.669 67.6679 121.957 67.7146 122.24 67.7799C123.3 68.0099 124.24 68.2499 125.03 68.4899C125.899 68.6956 126.732 69.0328 127.5 69.4899C126.622 69.4093 125.755 69.2418 124.91 68.9899C124.12 68.8199 123.17 68.6199 122.12 68.4299C121.59 68.3299 121.03 68.2199 120.78 68.4899C120.644 68.699 120.554 68.9347 120.516 69.1812C120.478 69.4277 120.493 69.6795 120.56 69.9199C120.654 70.4501 120.858 70.9549 121.157 71.4025C121.457 71.85 121.846 72.2305 122.3 72.5199C123.062 72.9885 123.969 73.1627 124.85 73.0099C125.715 72.8131 126.527 72.431 127.23 71.8899Z" fill="#141C51"/>
<path d="M151.359 109.749L157 188.199H107H85.5C85.5 188.199 89.3295 146.449 89.7495 136.389C90.2095 124.159 90.8395 94.2892 90.8395 94.2892L104.679 90.1992C104.679 90.1992 111.229 99.4992 119.959 98.2992C128.689 97.0992 132.359 91.8892 132.359 91.8892L143.069 93.7992L151.359 109.749Z" fill="#FF725E"/>
<path d="M142.93 93.75C142.93 93.75 153 96.39 156.46 100.46C159.36 103.89 172.27 127.89 172.27 127.89L151.77 140.45L148.41 129.45L142.93 93.75Z" fill="#FF725E"/>
<path d="M91.6103 94.0488C88.8147 94.7461 86.2422 96.1426 84.1344 98.1069C82.0266 100.071 80.4526 102.539 79.5603 105.279C78.6503 107.899 72.0003 131.469 72.0003 131.469L92.6103 139.359L101.32 110.359L91.6103 94.0488Z" fill="#FF725E"/>
<path d="M151.829 114.25C151.721 115.736 151.744 117.228 151.899 118.71C152.039 121.46 152.279 125.25 152.599 129.43C152.919 133.61 153.259 137.43 153.539 140.13C153.612 141.619 153.819 143.098 154.159 144.55C154.274 143.065 154.254 141.572 154.099 140.09C153.959 137.34 153.709 133.55 153.389 129.37C153.069 125.19 152.729 121.37 152.449 118.66C152.376 117.174 152.169 115.698 151.829 114.25Z" fill="#141C51"/>
<path d="M87.6802 112.889C87.5648 114.374 87.5849 115.867 87.7402 117.349C87.8802 120.099 88.1302 123.889 88.4502 128.069C88.7702 132.249 89.1102 136.069 89.3902 138.769C89.4625 140.254 89.67 141.731 90.0102 143.179C90.112 141.696 90.0886 140.207 89.9402 138.729C89.8002 135.979 89.5602 132.189 89.2302 128.009C88.9002 123.829 88.5802 120.009 88.3002 117.299C88.2216 115.813 88.0142 114.338 87.6802 112.889Z" fill="#141C51"/>
<path d="M78.0696 59.7251C76.4329 59.063 75.0088 57.9513 73.9486 56.5078C72.8884 55.0643 72.2315 53.3429 72.0477 51.5263C72.0573 49.5816 72.5724 47.6648 73.539 45.9767C74.5055 44.2886 75.8879 42.8914 77.5415 41.9314C79.549 40.7965 81.7854 40.1838 84.0541 40.1471C86.3228 40.1105 88.5542 40.6509 90.552 41.7211C90.6609 41.7912 90.7399 41.9013 90.7734 42.0299C90.8069 42.1585 90.7925 42.2964 90.7332 42.4166C90.7075 42.4819 90.6676 42.5406 90.6168 42.5879C90.5659 42.6352 90.5054 42.67 90.44 42.6895C90.3745 42.709 90.306 42.7127 90.2396 42.7003C90.1732 42.6879 90.1107 42.6598 90.0571 42.6181C88.2057 41.6547 86.1493 41.1687 84.0598 41.2007C81.9703 41.2327 79.9085 41.7818 78.0469 42.8021C76.5508 43.6669 75.2964 44.924 74.413 46.4438C73.5296 47.9637 73.049 49.6915 73.0206 51.4495C73.2002 53.0666 73.7956 54.5959 74.7453 55.8788C75.695 57.1618 76.9644 58.1517 78.4218 58.7458C78.5335 58.8162 78.6166 58.9256 78.6568 59.0547C78.697 59.1839 78.6915 59.3245 78.6414 59.4518C78.5919 59.5598 78.5072 59.6468 78.4023 59.6969C78.2975 59.747 78.1794 59.757 78.0696 59.7251Z" fill="#141C51"/>
<path d="M84.093 39.702C82.8366 38.4616 81.9494 36.8878 81.5256 35.1477C81.1019 33.4075 81.1573 31.5659 81.686 29.8182C82.4426 28.0266 83.6551 26.4552 85.1963 25.2685C86.7376 24.0818 88.5509 23.3234 90.4465 23.073C92.736 22.7971 95.0361 23.0914 97.1445 23.9297C99.2529 24.7681 101.105 26.125 102.538 27.881C102.612 27.9875 102.642 28.1195 102.624 28.2511C102.605 28.3827 102.539 28.5045 102.438 28.5927C102.389 28.6431 102.33 28.6819 102.264 28.706C102.199 28.7302 102.13 28.739 102.062 28.7318C101.994 28.7247 101.93 28.7017 101.873 28.6648C101.816 28.6278 101.77 28.5778 101.736 28.5187C100.397 26.9176 98.6859 25.6783 96.7447 24.9045C94.8035 24.1307 92.6891 23.8449 90.5783 24.0711C88.8647 24.2942 87.2235 24.9724 85.8236 26.0358C84.4237 27.0992 83.3158 28.5094 82.6137 30.1213C82.1577 31.6832 82.1194 33.3239 82.5029 34.8734C82.8864 36.4228 83.6776 37.8246 84.7946 38.9334C84.8706 39.0413 84.9053 39.1743 84.8928 39.309C84.8802 39.4437 84.8211 39.5714 84.7258 39.6696C84.6387 39.7503 84.527 39.798 84.4109 39.8039C84.2949 39.8099 84.1821 39.7737 84.093 39.702Z" fill="#141C51"/>
<path d="M275.526 188.157C275.526 188.242 213.841 188.315 137.772 188.315C61.7028 188.315 0 188.242 0 188.157C0 188.073 61.6726 188 137.772 188C213.871 188 275.526 188.067 275.526 188.157Z" fill="#263238"/>
</svg>
