<svg width="14" height="14" viewBox="0 0 14 14" fill="none" xmlns="http://www.w3.org/2000/svg">
<path d="M6.9998 8.39687L2.0998 13.2969C1.91647 13.4802 1.68314 13.5719 1.3998 13.5719C1.11647 13.5719 0.883138 13.4802 0.699805 13.2969C0.516471 13.1135 0.424805 12.8802 0.424805 12.5969C0.424805 12.3135 0.516471 12.0802 0.699805 11.8969L5.5998 6.99688L0.699805 2.09688C0.516471 1.91354 0.424805 1.68021 0.424805 1.39688C0.424805 1.11354 0.516471 0.880208 0.699805 0.696875C0.883138 0.513542 1.11647 0.421875 1.3998 0.421875C1.68314 0.421875 1.91647 0.513542 2.0998 0.696875L6.9998 5.59688L11.8998 0.696875C12.0831 0.513542 12.3165 0.421875 12.5998 0.421875C12.8831 0.421875 13.1165 0.513542 13.2998 0.696875C13.4831 0.880208 13.5748 1.11354 13.5748 1.39688C13.5748 1.68021 13.4831 1.91354 13.2998 2.09688L8.3998 6.99688L13.2998 11.8969C13.4831 12.0802 13.5748 12.3135 13.5748 12.5969C13.5748 12.8802 13.4831 13.1135 13.2998 13.2969C13.1165 13.4802 12.8831 13.5719 12.5998 13.5719C12.3165 13.5719 12.0831 13.4802 11.8998 13.2969L6.9998 8.39687Z" fill="#1C1B1F"/>
</svg>
