<svg width="276" height="214" viewBox="0 0 276 214" fill="none" xmlns="http://www.w3.org/2000/svg">
<path d="M223.507 83.7514C225.484 78.9408 234.197 77.8718 237.243 78.4063C246.918 80.7582 252.744 122.61 240.985 163.232C237.144 176.493 231.592 189.196 224.469 201.022L197.744 165.157C202.266 148.541 207.873 132.239 214.527 116.356C217.515 109.826 219.808 103.001 221.369 95.9916C222.321 91.9569 223.035 87.8698 223.507 83.7514Z" fill="#F5AB8A"/>
<path d="M80.8517 151.558C80.4104 152.824 79.6369 153.949 78.6119 154.814C77.587 155.679 76.3484 156.253 75.0258 156.475C72.9619 156.582 70.9356 155.893 69.3645 154.551C67.7933 153.208 66.7969 151.314 66.5807 149.259C63.8821 140.545 62.0032 131.598 60.9686 122.534C60.6479 120.129 60.4341 117.67 60.2737 115.211C60.2478 115.052 60.2478 114.889 60.2737 114.73C59.7942 107.95 59.7942 101.145 60.2737 94.3654C71.213 90.802 77.3597 90.0537 78.7138 92.1204C79.5155 93.4567 78.7138 95.6482 76.2551 98.9087C76.7361 103.719 77.1103 108.53 77.5913 113.394C77.5913 113.928 77.5913 114.516 77.5913 115.104C78.5 127.237 79.5155 139.371 80.8517 151.558Z" fill="#F5AB8A"/>
<path d="M79.0376 113.983L57.6579 117.778C53.0078 103.934 56.3216 89.9299 65.5149 82.9278C70.0527 79.606 75.5528 77.8602 81.1756 77.9569C82.1723 78.0338 83.1424 78.3155 84.0253 78.7842C84.9082 79.253 85.6849 79.8989 86.3069 80.6814C86.9289 81.464 87.3829 82.3664 87.6403 83.3323C87.8978 84.2982 87.9533 85.3069 87.8033 86.2952C87.0557 87.8857 85.7495 89.1458 84.1332 89.8357C82.5168 90.5256 80.7033 90.5972 79.0376 90.0368V113.983Z" fill="#9ECEDD"/>
<path d="M116.986 150.513C117.323 151.798 117.995 152.97 118.934 153.91C119.874 154.849 121.046 155.521 122.331 155.858C124.377 156.144 126.456 155.641 128.144 154.449C129.832 153.258 131.003 151.468 131.418 149.444C134.91 141.058 137.664 132.384 139.649 123.52C140.13 121.168 140.611 118.763 140.985 116.251C141.009 116.109 141.009 115.965 140.985 115.823C142.062 109.1 142.722 102.317 142.963 95.512C132.273 90.8617 126.34 89.5255 124.79 91.6101C123.881 92.8394 124.469 95.1378 126.554 98.5586C125.645 103.316 124.843 108.073 123.935 112.883C123.935 113.418 123.935 114.006 123.935 114.54C121.316 126.513 119.178 138.54 116.986 150.513Z" fill="#F5AB8A"/>
<path d="M118.801 111.869L123.611 114.542L139.646 123.521C140.127 121.17 140.608 118.764 140.982 116.252L124.039 112.885L118.801 111.869Z" fill="#141C51"/>
<path d="M122.008 113.312L142.853 119.031C148.786 105.722 146.809 91.5042 138.31 83.6469C134.118 79.9754 128.848 77.7623 123.291 77.3398C122.286 77.3069 121.285 77.4861 120.354 77.8656C119.422 78.2452 118.582 78.8166 117.886 79.5426C117.19 80.2687 116.655 81.1332 116.315 82.0798C115.976 83.0263 115.839 84.0338 115.915 85.0367C116.51 86.6816 117.687 88.0517 119.223 88.8887C120.759 89.7257 122.548 89.9716 124.253 89.58L122.008 113.312Z" fill="#FF5129"/>
<path d="M111.155 17.556C109.715 17.1947 108.25 16.9445 106.772 16.8077C103.161 16.365 99.5151 17.2871 96.5488 19.3932C93.5825 21.4993 91.5099 24.6376 90.7373 28.1927L87.37 42.9451C87.2232 47.2201 88.3621 51.4408 90.6394 55.0617C92.9167 58.6826 96.2277 61.5371 100.144 63.2563H100.519H100.946C104.277 63.3778 107.59 62.7188 110.621 61.3321C115.334 59.1418 119.12 55.3552 121.31 50.642L124.678 35.8362C125.484 32.3205 124.964 28.6311 123.218 25.4748C121.473 22.3186 118.624 19.9176 115.217 18.732C113.892 18.2475 112.534 17.8546 111.155 17.556Z" fill="#F5AB8A"/>
<path d="M91.5431 38.7757C90.9017 41.7154 88.5499 43.7466 86.1981 43.2655C85.0192 42.7673 84.0778 41.8336 83.57 40.6587C83.0623 39.4839 83.0272 38.1584 83.4722 36.9583C84.1136 33.9651 86.4654 31.9874 88.8172 32.4685C89.9961 32.9667 90.9375 33.9004 91.4452 35.0753C91.953 36.2501 91.9881 37.5756 91.5431 38.7757Z" fill="#F5AB8A"/>
<path d="M127.406 46.8289C126.712 49.8221 124.36 51.7998 122.061 51.3188C120.882 50.8206 119.941 49.8868 119.433 48.712C118.926 47.5371 118.891 46.2116 119.335 45.0116C119.977 42.0718 122.329 40.0407 124.68 40.5217C125.851 41.0303 126.784 41.9651 127.29 43.1365C127.796 44.3079 127.838 45.628 127.406 46.8289Z" fill="#F5AB8A"/>
<path d="M126.924 93.0224C127.089 93.0119 127.255 93.0349 127.411 93.0901C127.567 93.1452 127.71 93.2313 127.832 93.3432C128.096 93.5672 128.28 93.8703 128.357 94.2075C128.434 94.5446 128.4 94.8977 128.26 95.2139H71.7639C71.6553 94.9404 71.633 94.6402 71.6999 94.3536C71.7667 94.067 71.9196 93.8076 72.1381 93.6104C72.3129 93.5253 72.5048 93.4811 72.6993 93.4811C72.8937 93.4811 73.0856 93.5253 73.2605 93.6104C78.909 92.0443 84.7985 91.5369 90.6316 92.1138C93.892 92.4345 94.7472 92.9156 98.3283 93.0759C103.223 92.9531 108.102 92.4527 112.92 91.5793C117.636 91.2682 122.37 91.7561 126.924 93.0224Z" fill="white"/>
<path d="M36.4359 134.166C34.4077 134.562 32.5167 135.476 30.9466 136.82C29.3765 138.163 28.1808 139.89 27.4759 141.833C26.771 143.775 26.5809 145.867 26.924 147.905C27.2671 149.943 28.1318 151.857 29.434 153.462C37.6461 163.809 46.8276 173.349 56.8535 181.951C65.9911 189.795 75.8114 196.807 86.1973 202.903C89.5646 191.091 93.5198 179.278 98.1699 167.519C98.1699 167.145 98.4372 166.824 98.5441 166.45C93.8405 163.297 88.8697 160.143 83.6317 157.043C68.5795 148.088 52.7902 140.435 36.4359 134.166Z" fill="#9ECEDD"/>
<path d="M160.384 134.002C162.482 134.171 164.497 134.89 166.228 136.087C167.96 137.283 169.345 138.915 170.244 140.817C171.144 142.72 171.526 144.825 171.353 146.923C171.18 149.02 170.457 151.034 169.257 152.763C162.325 163.904 154.188 174.246 144.991 183.604C131.789 196.967 127.192 201.724 118.747 202.953C116.106 203.333 113.424 203.333 110.783 202.953C109.839 192.612 106.937 182.545 102.231 173.288L101.75 172.326C106.079 168.691 110.729 165.057 115.647 161.636C129.761 151.191 144.726 141.947 160.384 134.002Z" fill="#9ECEDD"/>
<path d="M129.705 167.936C128.209 165.355 126.549 162.873 124.734 160.506C123.162 158.461 121.485 156.498 119.71 154.626L125.964 122.128C129.972 120.097 131.308 105.559 129.598 103.421L131.202 94.8686C129.25 92.4862 126.807 90.5535 124.039 89.2028C120.392 87.6325 116.446 86.8764 112.477 86.9872C108.508 87.098 104.61 88.073 101.056 89.8442C97.4723 88.0766 93.5489 87.1042 89.5544 86.9935C85.56 86.8828 81.5888 87.6365 77.9125 89.2028C75.163 90.582 72.7254 92.5103 70.7503 94.8686L72.4072 103.421C70.4831 105.559 71.9796 120.097 75.9883 122.128L82.2419 154.626C78.5297 158.764 75.1854 163.217 72.2469 167.936C69.8932 171.817 67.8039 175.853 65.9933 180.015C64.7422 182.941 64.5209 186.205 65.3656 189.274C66.2103 192.342 68.071 195.032 70.6434 196.906C75.3523 200.338 80.6124 202.941 86.1972 204.603C95.8472 207.298 106.051 207.298 115.701 204.603C120.969 203.132 125.993 200.9 130.614 197.975C133.633 196.098 135.851 193.17 136.838 189.754C137.825 186.339 137.512 182.679 135.959 179.481C134.302 175.793 131.896 171.624 129.705 167.936Z" fill="#F5AB8A"/>
<path d="M138.261 184.249C138.208 187.056 137.516 189.815 136.238 192.315C134.96 194.816 133.129 196.993 130.885 198.68C123.042 203.95 113.959 207.082 104.534 207.767C92.9121 209.125 81.2138 205.947 71.8767 198.894C68.9151 196.396 66.3553 193.458 64.2869 190.182C64.1309 188.564 64.1309 186.935 64.2869 185.318C64.5564 181.395 65.688 177.581 67.6008 174.146C71.641 166.792 76.0656 159.655 80.8562 152.766C86.8783 151.938 92.9503 151.528 99.029 151.537C106.096 151.502 113.155 152.02 120.142 153.087L126.288 161.265C133.611 171.1 137.406 176.178 138.261 183.073C138.207 183.5 138.207 183.821 138.261 184.249Z" fill="#9ECEDD"/>
<path d="M121.579 158.718C114.319 157.504 106.971 156.897 99.6111 156.9H99.3438C93.1584 156.883 86.9791 157.294 80.8503 158.13C80.6742 158.145 80.4988 158.093 80.3597 157.984C80.2207 157.875 80.1286 157.717 80.102 157.542C80.0868 157.457 80.0886 157.371 80.1073 157.287C80.1261 157.204 80.1614 157.124 80.2113 157.055C80.2611 156.985 80.3244 156.926 80.3975 156.881C80.4705 156.836 80.5518 156.806 80.6365 156.793C86.8524 155.921 93.1206 155.475 99.3973 155.457H99.6645C107.061 155.447 114.444 156.055 121.739 157.274C121.824 157.287 121.905 157.317 121.978 157.362C122.051 157.407 122.115 157.466 122.164 157.536C122.214 157.606 122.25 157.685 122.268 157.768C122.287 157.852 122.289 157.938 122.274 158.023C122.274 158.114 122.256 158.204 122.221 158.289C122.186 158.373 122.135 158.45 122.07 158.514C122.006 158.579 121.929 158.63 121.845 158.665C121.76 158.7 121.67 158.718 121.579 158.718Z" fill="white"/>
<path d="M99.613 159.393C99.4534 159.397 99.2972 159.346 99.1707 159.249C99.0441 159.152 98.955 159.014 98.9182 158.858L98.0095 152.07C97.9921 151.902 98.0369 151.733 98.1353 151.595C98.2337 151.457 98.3791 151.36 98.544 151.322C98.7265 151.304 98.9089 151.355 99.0567 151.463C99.2044 151.572 99.3073 151.73 99.3458 151.91L100.254 158.644C100.27 158.733 100.266 158.823 100.244 158.91C100.222 158.997 100.182 159.079 100.127 159.149C100.071 159.22 100.002 159.278 99.9224 159.32C99.8431 159.362 99.7559 159.387 99.6665 159.393H99.613Z" fill="white"/>
<path d="M101.804 159.548C101.712 159.541 101.623 159.516 101.542 159.475C101.46 159.433 101.387 159.376 101.327 159.307C101.268 159.237 101.223 159.157 101.194 159.069C101.166 158.982 101.155 158.891 101.162 158.799L101.804 152.759C101.81 152.67 101.835 152.583 101.877 152.503C101.919 152.424 101.977 152.355 102.047 152.299C102.118 152.244 102.199 152.204 102.286 152.182C102.373 152.16 102.464 152.156 102.552 152.171C102.639 152.17 102.725 152.188 102.805 152.224C102.884 152.26 102.954 152.313 103.011 152.379C103.067 152.446 103.108 152.524 103.13 152.608C103.152 152.692 103.156 152.781 103.14 152.866L102.231 158.96C102.228 159.089 102.185 159.215 102.109 159.32C102.033 159.425 101.926 159.504 101.804 159.548Z" fill="white"/>
<path d="M101.163 206.587C100.987 206.587 100.818 206.522 100.689 206.403C100.561 206.284 100.481 206.12 100.468 205.946C100.468 201.776 100.147 197.554 100.094 193.385C100.094 183.015 100.094 172.485 100.468 162.116C100.468 161.742 100.789 161.528 101.163 161.475C101.338 161.488 101.501 161.567 101.62 161.696C101.739 161.825 101.805 161.994 101.804 162.169C101.323 172.539 101.216 183.015 101.43 193.385C101.43 197.554 101.43 201.723 101.804 205.892C101.812 205.981 101.8 206.07 101.772 206.154C101.743 206.238 101.697 206.315 101.636 206.381C101.576 206.446 101.503 206.498 101.421 206.534C101.34 206.569 101.252 206.587 101.163 206.587Z" fill="white"/>
<path d="M87.2657 169.271C83.1184 169.176 79.0885 167.876 75.6672 165.53C75.6074 165.47 75.5599 165.399 75.5276 165.321C75.4952 165.244 75.4785 165.16 75.4785 165.076C75.4785 164.991 75.4952 164.908 75.5276 164.83C75.5599 164.752 75.6074 164.681 75.6672 164.621C75.7966 164.497 75.9689 164.428 76.1482 164.428C76.3275 164.428 76.4999 164.497 76.6292 164.621C80.5038 167.288 85.2112 168.464 89.8847 167.935C91.4906 167.685 93.055 167.218 94.5348 166.545C94.6119 166.51 94.6954 166.49 94.7803 166.487C94.8652 166.483 94.9499 166.497 95.0295 166.527C95.109 166.557 95.1819 166.602 95.2438 166.66C95.3057 166.719 95.3554 166.789 95.39 166.866C95.4644 167.03 95.4725 167.216 95.4127 167.385C95.3529 167.554 95.2299 167.694 95.0693 167.775C93.4796 168.514 91.7845 169.001 90.0451 169.218C89.1227 169.329 88.1916 169.347 87.2657 169.271Z" fill="white"/>
<path d="M84.2192 194.403C80.8928 194.082 77.7498 192.73 75.2295 190.535C72.7092 188.341 70.9375 185.414 70.162 182.163C69.6695 179.701 69.7356 177.16 70.3554 174.727C70.9752 172.295 72.1328 170.032 73.7431 168.106C73.8725 167.981 74.0449 167.912 74.2242 167.912C74.4035 167.912 74.5758 167.981 74.7052 168.106C74.765 168.165 74.8125 168.236 74.8448 168.314C74.8772 168.392 74.8939 168.475 74.8939 168.56C74.8939 168.644 74.8772 168.728 74.8448 168.806C74.8125 168.884 74.765 168.955 74.7052 169.014C73.2365 170.793 72.1819 172.877 71.618 175.114C71.0541 177.352 70.9949 179.686 71.4448 181.949C72.1078 185.085 73.83 187.896 76.3219 189.911C78.8137 191.926 81.9233 193.021 85.1278 193.014C86.5367 192.687 87.8647 192.078 89.0315 191.224C90.1982 190.37 91.1795 189.287 91.9159 188.043C93.5967 185.294 94.6922 182.228 95.1336 179.037C95.5751 175.845 95.3531 172.597 94.4815 169.495C94.4556 169.32 94.4889 169.14 94.5759 168.985C94.663 168.831 94.799 168.709 94.9625 168.64C95.1394 168.608 95.3216 168.646 95.4711 168.746C95.6206 168.845 95.7257 168.999 95.7643 169.175C96.6754 172.457 96.9036 175.891 96.4348 179.265C95.9659 182.639 94.8099 185.881 93.0384 188.791C92.1701 190.155 91.0367 191.331 89.7054 192.25C88.3741 193.168 86.872 193.809 85.2882 194.136L84.2192 194.403Z" fill="white"/>
<path d="M85.6097 172.557C84.9338 172.611 84.2546 172.611 83.5787 172.557C81.0688 172.287 78.6452 171.485 76.4699 170.205C76.4101 170.145 76.3627 170.074 76.3303 169.996C76.2979 169.918 76.2812 169.835 76.2812 169.75C76.2812 169.666 76.2979 169.582 76.3303 169.504C76.3627 169.426 76.4101 169.356 76.4699 169.296C76.5961 169.187 76.7574 169.127 76.9242 169.127C77.091 169.127 77.2523 169.187 77.3785 169.296C79.6087 170.598 82.1079 171.372 84.6838 171.557C87.2597 171.743 89.8438 171.335 92.2375 170.365C92.3146 170.329 92.398 170.309 92.483 170.306C92.5679 170.303 92.6526 170.317 92.7321 170.347C92.8117 170.376 92.8846 170.422 92.9465 170.48C93.0083 170.538 93.058 170.608 93.0927 170.686C93.1505 170.857 93.1444 171.043 93.0756 171.21C93.0069 171.377 92.88 171.514 92.7185 171.594C90.4374 172.389 88.0199 172.716 85.6097 172.557Z" fill="white"/>
<path d="M114.311 169.319C113.457 169.394 112.599 169.394 111.745 169.319C110.006 169.101 108.311 168.614 106.721 167.875C106.621 167.85 106.529 167.803 106.449 167.738C106.37 167.672 106.306 167.59 106.263 167.497C106.219 167.404 106.197 167.302 106.197 167.199C106.198 167.096 106.221 166.995 106.265 166.902C106.31 166.809 106.374 166.728 106.454 166.663C106.534 166.598 106.627 166.552 106.727 166.527C106.826 166.503 106.93 166.501 107.031 166.521C107.132 166.542 107.227 166.584 107.309 166.646C108.789 167.318 110.353 167.786 111.959 168.036C116.632 168.551 121.334 167.375 125.215 164.722C125.274 164.662 125.345 164.615 125.423 164.582C125.501 164.55 125.584 164.533 125.669 164.533C125.753 164.533 125.837 164.55 125.915 164.582C125.993 164.615 126.064 164.662 126.123 164.722C126.183 164.781 126.23 164.852 126.263 164.93C126.295 165.008 126.312 165.092 126.312 165.176C126.312 165.261 126.295 165.344 126.263 165.422C126.23 165.5 126.183 165.571 126.123 165.631C122.635 167.997 118.526 169.281 114.311 169.319Z" fill="white"/>
<path d="M117.413 194.395H116.13C114.526 194.034 113.011 193.35 111.679 192.386C110.346 191.421 109.224 190.195 108.38 188.783C106.607 185.884 105.45 182.651 104.981 179.285C104.512 175.92 104.741 172.494 105.654 169.22C105.704 169.051 105.811 168.905 105.958 168.807C106.104 168.709 106.281 168.666 106.456 168.686C106.633 168.736 106.783 168.854 106.873 169.014C106.963 169.174 106.986 169.364 106.937 169.541C106.081 172.645 105.868 175.89 106.309 179.079C106.75 182.268 107.837 185.334 109.503 188.088C110.245 189.339 111.235 190.424 112.411 191.279C113.587 192.134 114.926 192.74 116.344 193.059C119.544 193.047 122.643 191.945 125.131 189.933C127.619 187.921 129.346 185.121 130.027 181.995C130.516 179.687 130.471 177.298 129.897 175.011C129.323 172.723 128.234 170.596 126.713 168.793C126.654 168.733 126.606 168.662 126.574 168.584C126.541 168.506 126.525 168.423 126.525 168.338C126.525 168.254 126.541 168.17 126.574 168.092C126.606 168.014 126.654 167.944 126.713 167.884C126.773 167.824 126.844 167.777 126.922 167.744C127 167.712 127.083 167.695 127.168 167.695C127.252 167.695 127.336 167.712 127.414 167.744C127.492 167.777 127.562 167.824 127.622 167.884C129.232 169.81 130.39 172.073 131.01 174.506C131.629 176.939 131.696 179.48 131.203 181.941C130.482 185.192 128.767 188.138 126.296 190.37C123.825 192.601 120.72 194.008 117.413 194.395Z" fill="white"/>
<path d="M116.022 172.522C113.658 172.533 111.315 172.079 109.127 171.185C109.038 171.157 108.956 171.109 108.887 171.046C108.818 170.982 108.764 170.905 108.728 170.818C108.692 170.732 108.676 170.638 108.68 170.545C108.685 170.451 108.709 170.36 108.753 170.277C108.787 170.199 108.837 170.129 108.899 170.071C108.961 170.013 109.034 169.967 109.113 169.937C109.193 169.908 109.278 169.894 109.362 169.897C109.447 169.9 109.531 169.92 109.608 169.956C112.231 171.023 115.081 171.409 117.893 171.078C120.218 170.771 122.456 169.989 124.467 168.78C124.615 168.745 124.77 168.76 124.909 168.822C125.048 168.884 125.162 168.99 125.235 169.124C125.308 169.257 125.335 169.411 125.312 169.561C125.289 169.712 125.218 169.85 125.108 169.956C122.952 171.235 120.546 172.037 118.053 172.308C117.383 172.432 116.704 172.504 116.022 172.522Z" fill="white"/>
<path d="M120.617 153.906C114.823 152.878 108.966 152.235 103.086 151.982C95.6649 151.656 88.2295 151.924 80.8511 152.783C75.6416 140.149 72.2928 126.826 70.9095 113.23C70.2664 106.676 70.0878 100.085 70.375 93.5066L89.0289 72.6074L114.685 73.035L132.376 92.8117C134.447 113.833 130.362 135.004 120.617 153.745V153.906Z" fill="#9ECEDD"/>
<path d="M105.065 15.7596C101.861 16.5172 98.8565 17.9544 96.256 19.974C93.6556 21.9936 91.5194 24.5483 89.992 27.4653C86.6782 32.8103 87.5868 35.857 85.7161 46.654C82.2419 66.9653 76.5228 71.7758 80.3712 77.9226C84.2195 84.0695 91.061 81.5038 94.268 87.5972C97.9026 94.5992 89.7248 100.425 90.0989 112.452C90.4731 124.478 98.2767 136.718 106.134 136.825C113.991 136.932 119.817 125.013 122.169 117.69C123.804 109.878 123.967 101.83 122.65 93.9578C121.517 87.8189 121.391 81.5366 122.275 75.357C123.128 71.543 124.438 67.846 126.177 64.3462C127.3 61.6202 135.371 41.5228 126.712 27.6256C124.553 23.84 121.387 20.7269 117.566 18.6321C113.744 16.5374 109.417 15.5431 105.065 15.7596Z" fill="#141C51"/>
<path d="M64.4413 183.078H64.1741C64.0135 182.997 63.8904 182.858 63.8306 182.688C63.7708 182.519 63.779 182.333 63.8534 182.169L75.5053 157.742C75.586 157.582 75.7256 157.459 75.895 157.399C76.0645 157.339 76.2504 157.347 76.414 157.422C76.5745 157.502 76.6976 157.642 76.7574 157.811C76.8172 157.981 76.8091 158.167 76.7347 158.33L65.0827 182.704C65.0139 182.813 64.9196 182.905 64.8079 182.97C64.6962 183.035 64.5705 183.072 64.4413 183.078Z" fill="white"/>
<path d="M139.644 180.409C139.54 180.411 139.437 180.388 139.344 180.342C139.251 180.295 139.17 180.227 139.11 180.142L125.801 161.702C125.677 161.572 125.607 161.4 125.607 161.221C125.607 161.041 125.677 160.869 125.801 160.739C125.86 160.68 125.931 160.632 126.009 160.6C126.087 160.567 126.171 160.551 126.255 160.551C126.34 160.551 126.423 160.567 126.501 160.6C126.579 160.632 126.65 160.68 126.71 160.739L140.018 179.501C140.143 179.63 140.212 179.802 140.212 179.982C140.212 180.161 140.143 180.333 140.018 180.463L139.644 180.409Z" fill="white"/>
<path d="M73.4233 155.272H73.0491L61.504 148.163C61.4303 148.117 61.3663 148.057 61.3157 147.987C61.2651 147.917 61.2288 147.837 61.2089 147.753C61.1891 147.668 61.1861 147.581 61.2 147.495C61.214 147.41 61.2446 147.328 61.2902 147.254C61.3359 147.18 61.3956 147.116 61.4659 147.066C61.5363 147.015 61.6159 146.979 61.7003 146.959C61.7847 146.939 61.8721 146.936 61.9577 146.95C62.0432 146.964 62.1252 146.995 62.1989 147.04L73.7974 154.149C73.8971 154.28 73.9511 154.439 73.9511 154.604C73.9511 154.768 73.8971 154.927 73.7974 155.058C73.6964 155.164 73.5662 155.239 73.4233 155.272Z" fill="white"/>
<path d="M124.79 157.801C124.669 157.791 124.552 157.751 124.45 157.686C124.348 157.621 124.263 157.532 124.202 157.427C124.093 157.3 124.033 157.139 124.033 156.972C124.033 156.805 124.093 156.644 124.202 156.518L134.892 151.173C134.968 151.127 135.053 151.097 135.142 151.085C135.23 151.074 135.32 151.081 135.405 151.106C135.491 151.131 135.57 151.174 135.638 151.231C135.706 151.289 135.762 151.36 135.801 151.44C135.91 151.566 135.97 151.728 135.97 151.894C135.97 152.061 135.91 152.223 135.801 152.349L125.111 157.694L124.79 157.801Z" fill="white"/>
<path d="M98.7051 131.401C95.5794 130.912 92.6683 129.509 90.3381 127.369C88.0079 125.229 86.3629 122.448 85.61 119.375C84.3321 114.052 85.2163 108.439 88.0687 103.767C89.241 102.042 90.0209 100.08 90.3533 98.021C90.6858 95.9616 90.5627 93.8544 89.9928 91.8477C89.0865 90.2526 87.8499 88.8695 86.3659 87.791C84.8818 86.7125 83.1845 85.9635 81.3875 85.594C77.8064 84.3112 74.1184 82.9215 72.9959 79.0196C71.8735 75.1177 73.4235 73.6745 76.3098 68.3294C77.4857 66.1914 78.9288 63.5723 80.6392 60.1515C83.2653 54.9314 85.6202 49.5792 87.6945 44.1163C87.7736 43.9663 87.9013 43.8475 88.0566 43.7795C88.212 43.7116 88.3859 43.6984 88.5497 43.7422C88.7169 43.8029 88.8544 43.9254 88.934 44.0845C89.0135 44.2436 89.029 44.4272 88.9773 44.5974C86.8928 49.9424 84.4876 55.2875 81.8151 60.6326C80.1047 63.9999 78.6616 66.6725 77.4857 68.8105C74.7063 73.8349 73.5839 75.866 74.2787 78.485C74.9736 81.1041 78.4478 82.9214 81.8685 84.2043C83.8465 84.612 85.7102 85.4509 87.3269 86.6612C88.9437 87.8715 90.2737 89.4233 91.2222 91.2063C91.951 93.4494 92.1565 95.8296 91.823 98.1644C91.4894 100.499 90.6257 102.727 89.298 104.676C87.9392 106.833 87.0263 109.24 86.6132 111.755C86.2001 114.271 86.2952 116.843 86.8928 119.321C88.6032 124.666 93.5205 130.386 98.7051 130.386H99.1862C100.716 130.136 102.176 129.57 103.474 128.723C104.772 127.877 105.878 126.768 106.723 125.468C106.782 125.408 106.853 125.361 106.931 125.329C107.009 125.296 107.092 125.279 107.177 125.279C107.261 125.279 107.345 125.296 107.423 125.329C107.501 125.361 107.572 125.408 107.631 125.468C107.666 125.564 107.679 125.666 107.67 125.768C107.661 125.87 107.629 125.968 107.578 126.056C106.606 127.496 105.343 128.716 103.87 129.637C102.396 130.558 100.746 131.159 99.0258 131.401H98.7051Z" fill="#141C51"/>
<path d="M211.429 162.317C215.277 184.072 203.839 202.512 191.171 205.452C176.847 208.819 155.574 193.533 153.757 167.288C153.276 157.507 152.848 147.725 152.367 137.89C150.657 135.218 149 132.545 147.343 129.445C138.246 112.589 132.425 94.1623 130.186 75.1394C143.031 68.0356 157.256 63.7811 171.893 62.6651C186.53 61.5491 201.235 63.5978 215.01 68.6719C215.629 84.6756 214.12 100.691 210.52 116.296C209.594 121.606 208.275 126.63 206.565 131.369C208.275 141.632 209.896 151.948 211.429 162.317Z" fill="#F5AB8A"/>
<path d="M185.023 72.5943L157.337 77.9393C156.214 66.5543 155.145 55.2228 154.076 43.8378L175.99 39.6152C178.984 50.6795 182.03 61.9041 185.023 72.5943Z" fill="#F5AB8A"/>
<path d="M167.87 51.2171C163.793 52.7788 159.264 52.673 155.263 50.9227C151.263 49.1724 148.111 45.9181 146.491 41.8633L137.404 19.1468C140.946 14.2202 145.906 10.4909 151.622 8.45666C156.962 6.51456 162.739 6.1072 168.298 7.28075L177.064 29.8369C178.62 33.8959 178.53 38.4022 176.813 42.3959C175.096 46.3895 171.887 49.5547 167.87 51.2171Z" fill="#F5AB8A"/>
<path d="M156.057 34.0555C156.444 35.3065 156.359 36.6562 155.817 37.8484C155.275 39.0406 154.315 39.9923 153.117 40.5231C152.416 40.7056 151.685 40.748 150.966 40.648C150.248 40.548 149.556 40.3075 148.931 39.9402C148.306 39.5729 147.759 39.086 147.321 38.5074C146.884 37.9287 146.565 37.2696 146.383 36.5677C146.2 35.8658 146.158 35.1348 146.258 34.4165C146.358 33.6981 146.598 33.0065 146.966 32.3811C147.333 31.7558 147.82 31.2088 148.398 30.7716C148.977 30.3344 149.636 30.0154 150.338 29.8329C151.643 29.7131 152.947 30.0771 154.001 30.8556C155.056 31.6341 155.787 32.7729 156.057 34.0555Z" fill="#F5AB8A"/>
<path d="M224.472 201.204C215.73 204.869 206.549 207.384 197.159 208.687C182.451 210.672 167.493 209.69 153.17 205.8C148.96 202.047 145.574 197.461 143.229 192.331C131.898 167.476 150.872 140.323 152.582 137.918L209.399 149.303C219.306 159.737 225.163 173.365 225.915 187.734C226.007 192.267 225.522 196.793 224.472 201.204Z" fill="#F5AB8A"/>
<path d="M135.692 153.891L118.588 153.143C118.588 140.261 118.588 129.517 119.015 121.874C120.405 87.3449 123.986 78.2048 130.4 75.1581C131.561 74.607 132.809 74.2633 134.088 74.1426L143.549 110.81L135.692 153.891Z" fill="#F5AB8A"/>
<path d="M68.987 131.654C68.4525 135.61 67.8646 139.565 67.3301 143.52C74.7595 146.086 80.639 148.598 84.7011 150.415C101.698 158.059 106.615 161.426 116.771 161.747C119.871 161.747 130.721 162.228 134.837 155.867C135.259 155.255 135.6 154.59 135.852 153.89L130.08 142.932C125.786 141.336 121.371 140.085 116.878 139.191C100.469 136.037 91.703 139.565 76.951 134.808C74.2136 133.979 71.5498 132.924 68.987 131.654Z" fill="#F5AB8A"/>
<path d="M144.991 133.809L114.311 129.907C111.977 117.363 113.142 104.418 117.678 92.4917C119.764 87.3227 122.493 82.4378 125.803 77.9531C130.293 83.2982 134.782 88.6432 139.325 94.3625C141.214 107.404 143.103 120.553 144.991 133.809Z" fill="#FFC392"/>
<path d="M225.805 202.634C218.907 206.603 211.498 209.607 203.784 211.561C183.285 216.307 161.788 214.088 142.691 205.253C140.114 198.593 138.547 191.585 138.041 184.461C137.489 176.891 138.12 169.281 139.912 161.905L211.213 162.546L212.549 118.343C212.87 95.2521 220.193 78.6824 230.508 76.491C233.313 75.9566 236.216 76.3311 238.793 77.56C253.438 84.3482 252.637 114.281 252.637 124.757C252.904 139.402 250.071 168.373 225.805 202.634Z" fill="#141C51"/>
<path d="M211.692 168.794C208.005 175.098 203.033 180.555 197.098 184.812C191.164 189.069 184.401 192.029 177.248 193.501C170.095 194.973 162.712 194.924 155.58 193.356C148.447 191.788 141.724 188.737 135.847 184.401C132.533 148.768 129.184 113.277 125.799 77.9279C129.839 75.0938 134.112 72.6083 138.573 70.4982C143.271 68.2914 148.153 66.5028 153.165 65.1532C159.024 63.4662 165.013 62.2684 171.07 61.572C175.026 61.1444 178.767 60.9306 182.241 60.8771C192.798 60.8544 203.244 63.0202 212.921 67.2378C215.59 68.2354 217.975 69.8682 219.87 71.9949C222.416 75.3704 223.702 79.5303 223.504 83.754C219.953 92.328 217.458 101.302 216.075 110.479C217.518 118.764 217.465 134.746 211.692 168.794Z" fill="#FFC392"/>
<path d="M184.012 211.81C179.485 211.524 175.239 209.516 172.146 206.197C169.991 203.695 168.632 200.605 168.245 197.324C168.229 197.24 168.231 197.154 168.25 197.07C168.269 196.986 168.304 196.907 168.354 196.837C168.404 196.768 168.467 196.709 168.54 196.664C168.613 196.619 168.694 196.589 168.779 196.576C169.26 196.576 169.527 196.576 169.527 197.164C169.975 200.767 171.677 204.098 174.336 206.571C176.995 209.044 180.44 210.501 184.066 210.687C184.155 210.687 184.243 210.705 184.324 210.741C184.406 210.776 184.479 210.828 184.539 210.893C184.599 210.959 184.646 211.036 184.674 211.12C184.703 211.204 184.714 211.293 184.707 211.382C184.651 211.517 184.554 211.632 184.429 211.709C184.304 211.785 184.158 211.821 184.012 211.81Z" fill="white"/>
<path d="M176.422 24.4892C180.217 39.6692 178.239 43.1435 177.277 44.4263C175.925 46.2557 174.067 47.6492 171.932 48.4351C168.969 48.9489 165.92 48.577 163.167 47.3661C155.256 43.7314 153.386 33.2017 148.789 33.6827C147.399 33.6827 147.453 34.7517 145.956 34.9655C140.611 35.5535 135.64 22.8322 135.266 21.4425C133.395 16.6854 132.059 13.2646 133.663 10.7524C135.266 8.24022 137.297 9.25578 144.673 7.54536C153.332 5.56769 154.401 3.80382 159.586 4.01762C162.558 3.96764 165.49 4.7053 168.084 6.15565C169.153 6.95741 172.574 9.36269 176.422 24.4892Z" fill="#141C51"/>
<path d="M185.944 39.5312L185.944 39.5315L185.936 39.5389L185.597 39.8663L185.592 39.8716L185.586 39.876C185.533 39.9133 185.47 39.9322 185.405 39.9301C185.34 39.928 185.278 39.905 185.228 39.8648C185.177 39.8246 185.141 39.7692 185.125 39.7067C185.108 39.6443 185.112 39.5782 185.137 39.5184L185.143 39.5027L185.155 39.49C186.21 38.3045 186.836 36.7975 186.933 35.2063C186.974 34.154 186.909 33.4958 186.77 33.0632C186.634 32.6382 186.426 32.4305 186.167 32.2778C186.05 32.2083 185.895 32.1751 185.691 32.1812C185.486 32.1872 185.237 32.2324 184.936 32.3132C184.358 32.4683 183.608 32.7489 182.639 33.1116C182.598 33.1268 182.557 33.1422 182.516 33.1577C182.004 33.3957 181.433 33.4795 180.871 33.399L180.871 33.3991L180.865 33.3981C180.255 33.2777 179.696 32.9714 179.265 32.5216C178.943 32.2063 178.609 31.6608 178.269 31.0202C178.02 30.5502 177.763 30.0214 177.502 29.4836C177.405 29.2847 177.308 29.0846 177.211 28.8857C176.848 28.147 176.479 27.4246 176.106 26.836C175.732 26.2473 175.366 25.8086 175.011 25.6136C174.741 25.5207 174.456 25.6382 174.14 25.9262C173.823 26.2146 173.503 26.6495 173.175 27.1208C173.107 27.2189 173.039 27.3186 172.97 27.4186C172.711 27.7947 172.45 28.1756 172.188 28.4969C171.859 28.9002 171.512 29.2321 171.148 29.3357L171.148 29.3364L171.136 29.3383C168.021 29.8376 165.055 30.9919 162.435 32.7247C162.403 32.7473 162.367 32.763 162.329 32.7709C162.29 32.779 162.25 32.7788 162.211 32.7704C162.172 32.7619 162.136 32.7455 162.104 32.7221C162.073 32.6996 162.047 32.671 162.027 32.6382C162.007 32.6086 161.993 32.5755 161.985 32.5406C161.977 32.5043 161.977 32.4669 161.983 32.4303C161.99 32.3938 162.003 32.3589 162.024 32.3277C162.044 32.2966 162.07 32.2698 162.101 32.2489L162.101 32.2489L162.102 32.2483C164.79 30.4612 167.839 29.2752 171.042 28.7703C171.193 28.7214 171.357 28.6039 171.533 28.4237C171.71 28.2419 171.893 28.0036 172.08 27.7272C172.386 27.2766 172.697 26.734 173.011 26.1854C173.083 26.06 173.155 25.9343 173.228 25.8093C173.614 25.1411 174.005 24.4922 174.39 24.0393C174.582 23.8129 174.778 23.6294 174.977 23.5176C175.177 23.4047 175.387 23.3618 175.597 23.4306L175.606 23.4334L175.614 23.4379C175.828 23.5551 176.029 23.7629 176.219 24.0285C176.41 24.2952 176.596 24.6273 176.776 25.0017C177.136 25.7502 177.482 26.6786 177.817 27.6142C177.886 27.8054 177.954 27.997 178.022 28.1874C178.286 28.9308 178.544 29.6575 178.8 30.2855C178.96 30.6797 179.119 31.0326 179.276 31.3247C179.435 31.6179 179.588 31.8437 179.737 31.9882L179.737 31.9882L179.74 31.9918C180.085 32.3615 180.535 32.6172 181.028 32.7238C181.524 32.7796 182.024 32.697 182.473 32.4854L182.473 32.4852L182.48 32.4825L182.554 32.454C183.625 32.0432 184.44 31.7305 185.08 31.5664C185.733 31.3987 186.227 31.3792 186.634 31.5885C187.041 31.7974 187.326 32.2065 187.5 32.7876C187.673 33.3683 187.738 34.1315 187.698 35.0689L187.698 35.07C187.611 36.712 186.995 38.276 185.944 39.5312Z" fill="#141C51" stroke="#141C51" stroke-width="0.2"/>
<path d="M162.345 44.9724C162.687 44.3793 166.22 46.0471 170.094 43.8184C173.968 41.5898 173.559 37.8182 177.609 35.5051C180.294 33.9392 184.166 33.477 185.126 35.194C186.697 37.5427 182.807 45.5296 176.568 48.2537C169.435 51.2054 162.084 45.9382 162.345 44.9724Z" fill="#141C51"/>
<path d="M74.8169 146.243L63.4857 144.799C61.5872 143.688 60.0475 142.056 59.0494 140.096C58.1219 137.875 57.8405 135.438 58.2377 133.064C58.6348 130.691 59.6944 128.477 61.2942 126.68L65.0891 128.604C68.7237 130.528 72.2514 132.452 75.779 134.43C75.5118 138.385 75.0842 142.073 74.8169 146.243Z" fill="#F5AB8A"/>
<path d="M275.526 213.157C275.526 213.242 213.841 213.315 137.772 213.315C61.7028 213.315 0 213.242 0 213.157C0 213.073 61.6726 213 137.772 213C213.871 213 275.526 213.067 275.526 213.157Z" fill="#263238"/>
<path d="M200.885 44.0897L202.755 37.4297C199.563 32.2425 198.426 26.0488 199.567 20.0659C200.709 14.0829 204.048 8.7434 208.926 5.0967C213.805 1.44999 219.871 -0.240166 225.933 0.358391C231.994 0.956949 237.613 3.80094 241.684 8.33142C245.755 12.8619 247.984 18.7512 247.934 24.842C247.884 30.9327 245.557 36.7844 241.412 41.247C237.266 45.7095 231.601 48.4602 225.531 48.9585C219.46 49.4568 213.423 47.6666 208.605 43.9397L200.885 44.0897Z" fill="#FAFAFA"/>
<path d="M200.885 44.0897H201.405H202.895L208.595 43.9397L208.505 44.1197L207.975 43.4397L208.665 43.9597C211.844 46.3855 215.569 47.9957 219.515 48.6497C223.845 49.3538 228.286 48.8679 232.361 47.244C236.437 45.62 239.995 42.919 242.655 39.4297C246.047 35.0222 247.81 29.5767 247.644 24.0172C247.478 18.4578 245.394 13.127 241.745 8.92967C239.165 5.93158 235.879 3.62227 232.185 2.20967C228.662 0.866543 224.878 0.349945 221.125 0.699674C217.59 1.05263 214.176 2.17928 211.125 3.99967C208.379 5.64464 205.986 7.81689 204.084 10.3912C202.182 12.9654 200.808 15.8908 200.042 18.9985C199.276 22.1063 199.133 25.3349 199.621 28.4983C200.109 31.6616 201.218 34.6971 202.885 37.4297C202.265 39.5297 201.795 41.1697 201.455 42.2997C201.295 42.8497 201.165 43.2997 201.075 43.5797L200.935 44.0297C200.952 43.8872 200.982 43.7466 201.025 43.6097L201.355 42.3497C201.665 41.1897 202.115 39.5197 202.685 37.3497V37.4297C200.553 34.016 199.302 30.1262 199.045 26.1097C198.663 19.7699 200.742 13.5272 204.85 8.68333C208.958 3.83942 214.778 0.768088 221.095 0.109674C224.925 -0.248891 228.787 0.274483 232.385 1.63967C237.915 3.76313 242.494 7.81045 245.281 13.0385C248.068 18.2665 248.875 24.3243 247.555 30.0997C246.462 34.9048 243.946 39.269 240.335 42.6227C236.725 45.9764 232.187 48.1639 227.315 48.8997C224.019 49.4173 220.652 49.2493 217.424 48.4062C214.196 47.5631 211.176 46.063 208.555 43.9997L208.715 43.8397L208.845 44.0197H200.885V44.0897Z" fill="#263238"/>
<path d="M234.694 17.689C230.412 10.9982 223.846 18.9055 223.887 18.9372C223.928 18.8958 217.018 10.9982 212.736 17.689C210.165 21.7108 214.834 27.1511 218.972 30.8517C219.043 31.46 218.987 32.0765 218.807 32.6619C218.549 33.4161 217.938 34.0876 217.155 34.2287C217.918 34.4572 218.732 34.4555 219.494 34.224C220.257 33.9925 221.442 32.9271 221.442 32.9271L224.23 35C224.23 35 238.974 24.3823 234.694 17.689Z" fill="#FF725E"/>
</svg>
