<svg width="1440" height="492" viewBox="0 0 1440 492" fill="none" xmlns="http://www.w3.org/2000/svg">
<mask id="mask0_18507_5293" style="mask-type:alpha" maskUnits="userSpaceOnUse" x="0" y="0" width="1440" height="492">
<rect width="1440" height="492" fill="#F7FFFF"/>
</mask>
<g mask="url(#mask0_18507_5293)">
<path d="M1642.25 289.69C1567.48 198.706 1555.21 190.296 1555.21 190.296C1555.21 190.296 1494.76 133.948 1435.84 194.348C1400 231.124 1328.32 243.892 1328.32 243.892C1328.32 243.892 1231.84 268.664 1229.91 414.697C1227.98 560.729 1279.6 656.071 1425.29 670.215C1513.65 678.625 1556.93 695.981 1621.65 609.585C1629.24 593.231 1635.05 575.932 1638.95 558.053C1641.63 537.792 1666.51 489.242 1666.51 489.242C1666.51 489.242 1716.96 380.826 1642.25 289.69ZM1456.17 615.09C1423.36 615.09 1286.21 576.862 1286.21 448.873C1286.21 353.837 1374.15 262.242 1456.17 262.242C1543.15 262.242 1611.93 328.071 1611.93 436.946C1612.14 535.345 1542.46 615.09 1456.38 615.09H1456.17Z" fill="url(#paint0_linear_18507_5293)" fill-opacity="0.2"/>
</g>
<defs>
<linearGradient id="paint0_linear_18507_5293" x1="1294.14" y1="258.725" x2="1650.41" y2="579.808" gradientUnits="userSpaceOnUse">
<stop stop-color="#85C48D"/>
<stop offset="0.31" stop-color="#6DC09C"/>
<stop offset="0.95" stop-color="#30B7C4"/>
<stop offset="1" stop-color="#2BB6C7"/>
</linearGradient>
</defs>
</svg>
