<svg width="278" height="200" viewBox="0 0 278 200" fill="none" xmlns="http://www.w3.org/2000/svg">
<path d="M230.167 49.2796C233.561 52.0521 235.824 51.0336 240.689 53.7496C244.898 56.5387 248.232 60.4619 250.306 65.066C253.364 70.9933 255.283 77.4422 255.963 84.0776C257.604 96.6388 254.492 102.297 256.981 117.631C257.782 120.419 258.294 123.282 258.509 126.175C257.66 137.491 245.158 144.734 240.463 147.563C214.95 162.783 139.032 154.409 128.284 125.665C125.654 119.775 125.331 113.111 127.379 106.993C130.66 99.185 136.487 100.939 139.824 93.4702C143.841 84.2473 137.165 76.4956 143.501 65.745C143.841 65.1792 144.35 64.4436 145.312 63.029C153.118 51.7126 156.626 51.7126 167.94 35.4736C184.911 10.9735 184.911 1.52435 191.473 0.449294C202.787 -1.53108 222.191 20.4227 224.793 36.7184C224.955 41.4293 226.872 45.9094 230.167 49.2796Z" fill="#141C51"/>
<path d="M141.25 123.645C135.544 123.784 129.945 122.086 125.277 118.799C119.953 114.965 117.557 111.557 118.143 108.681C118.729 105.806 122.349 103.729 129.59 99.5217C131.227 98.7263 132.609 97.4908 133.583 95.9537C134.411 94.3096 134.709 92.4489 134.435 90.6284C133.818 84.4484 134.051 78.2129 135.127 72.0962C136.953 67.2513 140.248 63.099 144.551 60.2208C152.963 52.6038 162.913 46.8831 173.728 43.446C173.808 43.4213 173.893 43.4128 173.976 43.4209C174.06 43.429 174.141 43.4536 174.216 43.4931C174.29 43.5327 174.355 43.5865 174.409 43.6515C174.462 43.7166 174.502 43.7915 174.526 43.872C174.559 43.9556 174.575 44.0452 174.571 44.135C174.567 44.2249 174.544 44.3129 174.504 44.3933C174.464 44.4737 174.407 44.5447 174.337 44.6017C174.268 44.6587 174.187 44.7004 174.1 44.724C163.496 48.1203 153.733 53.729 145.456 61.1793C141.498 63.9736 138.518 67.9415 136.937 72.5222C135.861 78.4776 135.628 84.5548 136.245 90.5751C136.53 92.6602 136.158 94.7824 135.18 96.646C134.198 98.3004 132.755 99.6328 131.028 100.48C124.372 104.421 120.699 106.551 120.379 108.788C120.06 111.024 120.912 113.208 126.928 117.575C131.602 120.815 137.222 122.408 142.901 122.101C143.045 122.142 143.172 122.23 143.263 122.35C143.354 122.47 143.403 122.616 143.403 122.767C143.403 122.917 143.354 123.064 143.263 123.184C143.172 123.304 143.045 123.391 142.901 123.432L141.25 123.645Z" fill="#141C51"/>
<path d="M254.299 125.288C260.005 125.427 265.604 123.728 270.271 120.442C275.596 116.608 277.992 113.199 277.406 110.324C276.82 107.448 273.2 105.371 265.959 101.164C264.322 100.369 262.94 99.1334 261.966 97.5963C261.137 95.9521 260.84 94.0915 261.114 92.2709C261.731 86.091 261.498 79.8555 260.422 73.7388C258.596 68.8939 255.301 64.7416 250.998 61.8633C242.586 54.2463 232.635 48.5257 221.821 45.0885C221.741 45.0639 221.656 45.0554 221.572 45.0635C221.489 45.0716 221.408 45.0961 221.333 45.1357C221.259 45.1753 221.193 45.2291 221.14 45.2941C221.087 45.3591 221.047 45.4341 221.022 45.5146C220.989 45.5982 220.974 45.6878 220.978 45.7776C220.982 45.8674 221.005 45.9554 221.045 46.0358C221.085 46.1163 221.142 46.1873 221.211 46.2443C221.281 46.3013 221.362 46.343 221.448 46.3666C232.053 49.7629 241.816 55.3716 250.093 62.8219C254.051 65.6161 257.031 69.5841 258.611 74.1648C259.688 80.1202 259.921 86.1974 259.304 92.2177C259.019 94.3028 259.391 96.4249 260.368 98.2886C261.351 99.943 262.794 101.275 264.521 102.123C271.177 106.064 274.85 108.194 275.17 110.43C275.489 112.667 274.637 114.85 268.621 119.217C263.947 122.458 258.327 124.051 252.648 123.744C252.504 123.785 252.376 123.872 252.286 123.992C252.195 124.112 252.146 124.259 252.146 124.409C252.146 124.56 252.195 124.706 252.286 124.826C252.376 124.946 252.504 125.034 252.648 125.075L254.299 125.288Z" fill="#141C51"/>
<path d="M275.526 199.527C275.526 199.611 213.841 199.684 137.772 199.684C61.7028 199.684 0 199.611 0 199.527C0 199.442 61.6726 199.369 137.772 199.369C213.871 199.369 275.526 199.436 275.526 199.527Z" fill="#263238"/>
<path d="M70.8829 170.667C70.8829 170.667 55.881 153.397 50.2205 136.151C44.5599 118.906 47.254 120.862 47.254 120.862C47.254 120.862 54.8942 137.635 60.694 145.737C66.4937 153.839 76.828 165.719 76.828 165.719L70.8829 170.667Z" fill="#455A64"/>
<path d="M73.8802 123.617C73.778 123.442 73.6184 123.308 73.4284 123.237C73.2384 123.166 73.0298 123.163 72.8379 123.229C72.6461 123.295 72.4829 123.425 72.376 123.597C72.2691 123.769 72.2252 123.973 72.2517 124.174C73.1658 130.23 75.1455 144.472 75.0668 153.706C74.9639 165.702 75.0668 170.334 75.0668 170.334H81.3146C81.3146 170.334 80.2067 145.543 78.7961 137.986C77.8032 132.682 75.7085 126.808 73.8802 123.617Z" fill="#455A64"/>
<path d="M77.2773 168.247C79.8951 162.317 81.6269 156.035 82.4172 149.602C82.9318 145.188 82.0116 139.224 80.6494 131.261C80.1222 128.35 79.8588 125.397 79.8624 122.438C79.8647 122.108 79.9766 121.788 80.1805 121.528C80.3845 121.269 80.6688 121.084 80.989 121.004C81.3091 120.923 81.6469 120.952 81.9493 121.084C82.2516 121.217 82.5014 121.446 82.6594 121.736C83.4101 123.086 85.5895 127.676 86.1465 130.558C87.654 138.43 89.3673 142.348 88.0596 149.808C86.7519 157.268 81.9147 168.749 81.9147 168.749L77.2773 168.247Z" fill="#455A64"/>
<path d="M82.8926 168.718C82.8926 168.718 99.3596 133.319 100.504 128.069C101.648 122.819 105.523 110.715 105.983 111.399C106.443 112.083 107.121 118.478 104.166 125.786C101.212 133.095 88.5289 169.802 88.5289 169.802H82.9047" fill="#455A64"/>
<path d="M75.4739 167.208C75.3148 167.112 75.1612 167.007 75.0138 166.893C74.7232 166.669 74.2752 166.354 73.7364 165.918C72.6406 165.053 71.1029 163.745 69.3109 162.007C64.6722 157.442 60.656 152.285 57.3663 146.669C54.0809 141.057 51.3478 135.139 49.2054 128.999C48.3821 126.65 47.7767 124.724 47.3892 123.386C47.1894 122.72 47.0502 122.175 46.9533 121.842C46.8934 121.665 46.8509 121.482 46.8262 121.297C46.9072 121.466 46.9721 121.642 47.0199 121.824C47.147 122.199 47.3105 122.708 47.5224 123.344C47.9522 124.67 48.594 126.577 49.4476 128.914C51.6528 135.005 54.4066 140.883 57.675 146.475C60.9586 152.061 64.9287 157.214 69.4925 161.813C71.2542 163.563 72.7617 164.901 73.8333 165.791C74.3539 166.251 74.7838 166.578 75.0441 166.815C75.2002 166.931 75.3442 167.063 75.4739 167.208Z" fill="#263238"/>
<path d="M77.2806 150.143C77.1986 149.803 77.1479 149.456 77.1293 149.107C77.0566 148.375 76.9537 147.418 76.8266 146.267C76.5662 143.876 76.1606 140.569 75.5794 136.942C74.9982 133.315 74.3686 130.052 73.8419 127.696C73.5997 126.564 73.4 125.625 73.2365 124.905C73.1458 124.565 73.0831 124.219 73.0488 123.869C73.1865 124.192 73.2939 124.526 73.3697 124.868C73.5513 125.522 73.7995 126.467 74.078 127.642C74.6471 129.985 75.3312 133.249 75.8942 136.888C76.4573 140.527 76.8508 143.839 77.0445 146.243C77.1474 147.454 77.208 148.423 77.2382 149.095C77.2826 149.442 77.2968 149.793 77.2806 150.143Z" fill="#263238"/>
<path d="M81.126 121.521C81.2075 121.663 81.2725 121.813 81.3197 121.97L81.8161 123.284C82.0341 123.853 82.2823 124.555 82.5184 125.391C82.7545 126.226 83.0815 127.159 83.3236 128.225C83.4507 128.758 83.59 129.315 83.7292 129.89C83.8685 130.465 83.9653 131.101 84.0925 131.706C84.3588 132.966 84.5284 134.328 84.6979 135.758C85.4479 141.991 85.2211 148.304 84.0259 154.468C83.7232 155.879 83.4628 157.23 83.1057 158.465C82.9301 159.07 82.7908 159.676 82.6092 160.282L82.0825 161.91C81.7738 162.958 81.3863 163.872 81.0836 164.684C80.7809 165.495 80.4782 166.179 80.23 166.73C79.9818 167.281 79.788 167.687 79.6246 168.008C79.5632 168.161 79.4861 168.307 79.3945 168.444C79.4545 168.282 79.5253 168.124 79.6064 167.972L80.1331 166.676C80.3692 166.113 80.6538 165.422 80.9323 164.605C81.2107 163.788 81.58 162.873 81.8767 161.826C82.0401 161.311 82.2036 160.766 82.3792 160.197C82.5547 159.628 82.6879 159.028 82.8514 158.41C83.1965 157.199 83.4568 155.837 83.7353 154.426C84.8903 148.29 85.1168 142.015 84.4073 135.812C84.2135 134.389 84.0622 133.033 83.8019 131.779C83.6808 131.174 83.59 130.568 83.4568 129.963L83.0754 128.297C82.8514 127.232 82.5547 126.293 82.3247 125.457C82.0946 124.622 81.8767 123.913 81.6769 123.338C81.4771 122.763 81.356 122.345 81.2471 122.006C81.1939 121.848 81.1534 121.686 81.126 121.521Z" fill="#263238"/>
<path d="M105.797 112.217C105.804 112.269 105.804 112.322 105.797 112.374C105.797 112.501 105.749 112.647 105.718 112.834C105.646 113.234 105.555 113.834 105.397 114.597C105.077 116.116 104.55 118.308 103.727 120.967C102.903 123.625 101.777 126.75 100.445 130.171C99.1134 133.592 97.5696 137.334 96.1106 141.307C94.6516 145.279 93.4832 149.148 92.4055 152.666C91.3279 156.184 90.329 159.327 89.3785 161.943C88.6247 164.008 87.7576 166.029 86.7813 167.998C86.4423 168.701 86.1396 169.209 85.9459 169.585C85.849 169.742 85.7763 169.875 85.7097 169.984C85.6432 170.093 85.6311 170.124 85.625 170.118C85.6347 170.066 85.6531 170.017 85.6795 169.972L85.8793 169.548C86.0548 169.179 86.3394 168.646 86.6542 167.938C87.3201 166.533 88.2101 164.474 89.1485 161.882C90.0868 159.291 91.0736 156.118 92.121 152.594C93.1683 149.069 94.3186 145.188 95.8018 141.21C97.2851 137.231 98.8289 133.495 100.167 130.08C101.505 126.665 102.661 123.558 103.515 120.918C104.368 118.278 104.931 116.074 105.289 114.59C105.47 113.834 105.579 113.246 105.676 112.847L105.785 112.392C105.778 112.334 105.782 112.274 105.797 112.217Z" fill="#263238"/>
<path d="M55.0106 104.361C54.7835 104.144 54.4907 104.009 54.1783 103.976C53.8659 103.944 53.5516 104.016 53.2847 104.182C53.0179 104.348 52.8136 104.597 52.7041 104.892C52.5946 105.186 52.586 105.509 52.6798 105.808C53.2434 107.629 53.9332 109.407 54.7442 111.131C57.0084 115.945 63.6618 133.215 66.7736 142.697C69.8853 152.18 74.2745 169.874 74.2745 169.874L80.934 168.79C80.934 168.79 74.8799 139.724 68.9106 129.249C64.1219 120.82 59.3453 108.661 55.0106 104.361Z" fill="#455A64"/>
<path d="M68.5938 148.604C68.7359 148.857 68.8496 149.125 68.9328 149.403C69.1326 149.924 69.3989 150.687 69.7017 151.631C70.3071 153.532 71.0638 156.179 71.8206 159.121C72.5773 162.064 73.2009 164.747 73.6368 166.69C73.8366 167.605 74 168.38 74.1332 168.991C74.2122 169.272 74.259 169.56 74.2724 169.851C74.1521 169.587 74.0607 169.311 74 169.028L73.3946 166.745C72.8861 164.747 72.2141 162.119 71.4755 159.212C70.7369 156.306 70.0165 153.617 69.4655 151.704C69.1992 150.808 68.9812 150.045 68.8056 149.445C68.7046 149.173 68.6335 148.891 68.5938 148.604Z" fill="#263238"/>
<path d="M77.6134 169.341C77.5919 169.285 77.5796 169.225 77.5771 169.165C77.5771 169.026 77.5287 168.856 77.4984 168.644C77.4318 168.184 77.3652 167.5 77.226 166.628C76.9838 164.884 76.5479 162.389 75.8335 159.295C74.9849 155.702 73.9462 152.157 72.7218 148.674C71.3596 144.732 69.6463 140.475 67.709 136.073C63.7981 127.269 59.8932 119.463 57.3263 113.668C56.0247 110.792 55.0197 108.437 54.3598 106.802C54.0208 105.984 53.7544 105.342 53.6091 104.912C53.5365 104.706 53.476 104.543 53.4275 104.416C53.4005 104.36 53.3822 104.301 53.373 104.24C53.4084 104.291 53.4368 104.346 53.4578 104.404C53.5183 104.531 53.591 104.688 53.6757 104.882C53.8755 105.336 54.1419 105.96 54.487 106.747C55.1832 108.37 56.2245 110.701 57.5503 113.565C60.1717 119.306 64.1129 127.093 68.0299 135.903C69.9732 140.318 71.6623 144.587 73.0245 148.541C74.2325 152.04 75.2431 155.604 76.0515 159.216C76.7356 162.299 77.1352 164.83 77.341 166.586C77.456 167.464 77.4984 168.148 77.5468 168.608C77.5468 168.826 77.5771 169.002 77.5832 169.141C77.6055 169.205 77.6157 169.273 77.6134 169.341Z" fill="#263238"/>
<path d="M80.9293 168.703C80.8239 168.338 80.749 167.966 80.7053 167.589C80.5721 166.808 80.4026 165.772 80.1907 164.531C79.7306 161.958 79.0283 158.409 78.0234 154.546C77.0184 150.683 75.9105 147.237 75.0448 144.773L74.0035 141.83C73.8547 141.48 73.7372 141.117 73.6523 140.746C73.8397 141.078 73.9997 141.424 74.1306 141.782C74.4212 142.454 74.8208 143.441 75.2809 144.67C76.4798 147.869 77.5104 151.13 78.3685 154.437C79.2245 157.745 79.9135 161.093 80.4329 164.47C80.6266 165.772 80.7658 166.82 80.8446 167.553C80.9052 167.933 80.9336 168.318 80.9293 168.703Z" fill="#263238"/>
<path d="M94.5609 167.764H68.6133V199.384H94.5609V167.764Z" fill="#FF725E"/>
<g opacity="0.3">
<path d="M94.5726 167.791H68.625V199.411H94.5726V167.791Z" fill="black"/>
</g>
<path d="M86.3048 167.764H63.2812V199.384H86.3048V167.764Z" fill="#FF725E"/>
<path d="M189.663 11.8732L191.437 10.1777L210.635 17.9164C211.974 17.9915 213.237 18.5661 214.174 19.5267C215.111 20.4874 215.654 21.7644 215.696 23.1058L215.52 85.6693C215.52 89.908 214.697 93.5896 212.136 96.9685L209.466 100.529C203.321 108.649 190.699 107.977 185.807 99.0333C185.512 98.526 185.284 97.9825 185.129 97.4166C185.007 96.9561 184.912 96.4891 184.844 96.0178C184.275 90.9858 184.239 86.6199 184.239 86.6199C183.9 81.0914 183.785 78.8268 183.785 78.8752C183.785 78.9236 172.028 77.5249 168.85 62.429C167.263 54.9204 167.566 44.59 168.008 34.4292C168.601 20.3567 178.354 11.8611 189.663 11.8732Z" fill="#F5AB8A"/>
<path d="M193.596 42.7916C193.616 43.3007 193.835 43.7818 194.204 44.1324C194.574 44.483 195.066 44.6754 195.575 44.6687C195.825 44.676 196.073 44.6333 196.305 44.5433C196.538 44.4533 196.75 44.3177 196.929 44.1445C197.109 43.9714 197.251 43.7641 197.35 43.5348C197.448 43.3056 197.499 43.0591 197.501 42.8097C197.479 42.3011 197.26 41.8209 196.89 41.4706C196.521 41.1204 196.03 40.9274 195.521 40.9326C195.271 40.9245 195.023 40.9666 194.79 41.0563C194.557 41.146 194.345 41.2815 194.165 41.4549C193.986 41.6282 193.843 41.8359 193.745 42.0655C193.647 42.2951 193.596 42.542 193.596 42.7916Z" fill="#263238"/>
<path d="M173.75 43.3931C173.77 43.9018 173.989 44.3822 174.359 44.7318C174.729 45.0815 175.221 45.2725 175.73 45.2642C175.979 45.2723 176.228 45.2303 176.46 45.1406C176.693 45.0508 176.906 44.9153 177.085 44.7419C177.265 44.5686 177.408 44.361 177.506 44.1314C177.603 43.9018 177.654 43.6548 177.655 43.4053C177.633 42.8966 177.414 42.4164 177.045 42.0661C176.675 41.7159 176.184 41.5229 175.675 41.5281C175.425 41.5209 175.177 41.5637 174.944 41.6541C174.711 41.7444 174.499 41.8806 174.319 42.0544C174.14 42.2282 173.997 42.4363 173.899 42.6662C173.801 42.8961 173.751 43.1433 173.75 43.3931Z" fill="#263238"/>
<path d="M169.994 38.3792C170.248 38.6214 171.671 37.4527 173.772 37.3498C175.872 37.2468 177.465 38.2217 177.677 37.9553C177.786 37.8342 177.513 37.3921 176.817 36.9319C175.875 36.3528 174.779 36.074 173.675 36.1327C172.582 36.1829 171.534 36.5818 170.684 37.271C170.061 37.7978 169.867 38.2702 169.994 38.3792Z" fill="#263238"/>
<path d="M191.302 38.5566C191.581 38.7685 192.882 37.4606 194.935 37.1457C196.987 36.8308 198.694 37.6362 198.882 37.3455C198.973 37.2183 198.664 36.8005 197.919 36.4191C196.926 35.9336 195.807 35.7685 194.717 35.9468C193.634 36.1074 192.63 36.6103 191.853 37.3818C191.302 37.9692 191.163 38.4597 191.302 38.5566Z" fill="#263238"/>
<path d="M183.963 53.8982C183.963 53.7771 182.649 53.6197 180.518 53.4562C179.979 53.4259 179.471 53.3472 179.362 52.9839C179.288 52.4331 179.385 51.873 179.64 51.3793C180.076 50.0552 180.536 48.6665 181.021 47.2133C182.928 41.2913 184.284 36.429 184.048 36.3563C183.811 36.2836 182.068 41.0188 180.155 46.9469C179.701 48.4062 179.259 49.7989 178.847 51.131C178.539 51.7922 178.477 52.5414 178.672 53.2443C178.759 53.4294 178.888 53.5925 179.047 53.7214C179.206 53.8503 179.392 53.9418 179.592 53.9891C179.894 54.0539 180.203 54.0804 180.512 54.0678C182.637 54.0981 183.957 54.0193 183.963 53.8982Z" fill="#263238"/>
<path d="M183.766 78.826C190.936 78.5776 197.896 76.343 203.871 72.3711C203.871 72.3711 199.276 83.1675 183.971 82.5015L183.766 78.826Z" fill="#B56845"/>
<path d="M190.218 55.032C189.879 55.032 189.988 57.3088 188.117 59.0224C186.246 60.736 183.807 60.6089 183.807 60.9298C183.807 61.0751 184.37 61.3476 185.399 61.3234C186.735 61.2742 188.01 60.7553 189.001 59.858C189.954 58.9994 190.535 57.8021 190.617 56.5216C190.66 55.5649 190.375 55.0078 190.218 55.032Z" fill="#263238"/>
<path d="M189.293 30.3912C189.584 30.9241 191.618 30.3367 194.1 30.258C196.583 30.1793 198.659 30.5366 198.907 29.9795C199.016 29.7191 198.593 29.2407 197.697 28.8108C196.533 28.3032 195.269 28.0672 194.001 28.1207C192.733 28.1742 191.494 28.5158 190.377 29.1196C189.548 29.6222 189.166 30.1309 189.293 30.3912Z" fill="#263238"/>
<path d="M170.298 29.3735C170.691 29.8337 172.114 29.2645 173.852 29.1555C175.589 29.0465 177.078 29.3129 177.393 28.7982C177.526 28.55 177.272 28.0837 176.606 27.6659C175.719 27.1551 174.695 26.9329 173.676 27.0301C172.655 27.0964 171.681 27.4819 170.891 28.1322C170.298 28.6711 170.116 29.1494 170.298 29.3735Z" fill="#263238"/>
<path d="M208.018 44.6685C208.018 44.6322 207.449 44.6322 206.462 44.3537C205.083 43.9329 203.819 43.1993 202.769 42.2101C202.043 41.5359 201.397 40.78 200.844 39.9576C200.225 39.0015 199.7 37.9876 199.276 36.93C198.381 34.462 197.635 31.9425 197.042 29.3852C196.376 26.8373 195.58 24.3252 194.657 21.8586C193.904 19.8402 193.002 17.881 191.957 15.9971C191.25 14.733 190.457 13.5191 189.584 12.364C189.275 11.9522 189.009 11.6555 188.839 11.4436C188.754 11.3337 188.661 11.2305 188.561 11.1348C188.628 11.257 188.707 11.3726 188.797 11.4799C188.954 11.6979 189.202 12.0067 189.493 12.4245C190.331 13.6024 191.097 14.8298 191.787 16.1C192.803 17.9867 193.683 19.9435 194.421 21.9554C195.274 24.2261 196.049 26.7693 196.776 29.4699C197.372 32.0385 198.13 34.5666 199.046 37.039C199.478 38.1119 200.018 39.1384 200.657 40.1029C201.226 40.9356 201.893 41.6979 202.642 42.3736C203.721 43.3679 205.023 44.0885 206.438 44.4748C206.953 44.6117 207.485 44.6769 208.018 44.6685Z" fill="#263238"/>
<path d="M230.361 40.9975C230.318 40.8435 230.257 40.6952 230.18 40.5555L229.574 39.3444C229.047 38.2908 228.218 36.7952 227.153 34.9847C226.087 33.1742 224.689 31.067 223.054 28.8023C221.419 26.5377 219.482 24.1458 217.333 21.7419C215.184 19.338 212.98 17.1884 210.922 15.3052C208.863 13.4221 206.902 11.8356 205.213 10.564C203.524 9.29241 202.125 8.30541 201.132 7.67567L199.988 6.94299C199.858 6.85027 199.718 6.77304 199.57 6.71289C199.57 6.71289 199.685 6.834 199.934 7.02171L201.029 7.82705C201.992 8.50523 203.354 9.52856 205.007 10.8547C206.66 12.1807 208.573 13.7733 210.625 15.6504C212.677 17.5275 214.833 19.7013 216.982 22.081C219.131 24.4607 221.032 26.8586 222.703 29.0869C224.374 31.3152 225.73 33.3982 226.868 35.1845C228.006 36.9708 228.86 38.4301 229.435 39.4595C229.707 39.9318 229.931 40.3193 230.119 40.6342C230.182 40.766 230.264 40.8883 230.361 40.9975Z" fill="#455A64"/>
<path d="M216.541 124.64C216.812 124.322 217.049 123.977 217.249 123.611C217.685 122.927 218.309 121.939 219.114 120.747C221.181 117.605 223.419 114.579 225.816 111.682C228.171 108.775 230.839 106.135 233.771 103.81C235.024 102.899 236.325 102.056 237.67 101.285C237.268 101.404 236.878 101.562 236.507 101.757C236.058 101.965 235.624 102.202 235.206 102.466C234.641 102.791 234.095 103.149 233.571 103.538C230.552 105.819 227.826 108.463 225.453 111.409C223.044 114.308 220.837 117.37 218.848 120.571C218.079 121.782 217.498 122.811 217.11 123.52C216.885 123.874 216.694 124.249 216.541 124.64Z" fill="#263238"/>
<path d="M225.137 176.145L242.324 99.5752L224.768 90.1956C224.404 89.6688 215.517 85.6602 215.517 85.6602C213.17 89.446 210.081 92.717 206.436 95.276C195.799 101.695 185.132 96.4507 184.224 86.6108L174.495 89.3478L155.727 92.5874C155.727 92.5874 140.417 132.492 142.445 148.102C144.473 163.713 141.646 190.726 141.646 190.726L140.035 199.676L156.012 200.003H158.621L194.255 199.803L225.355 199.676C221.722 189.127 225.137 176.145 225.137 176.145Z" fill="#455A64"/>
<path d="M129.489 182.535C126.461 182.68 123.452 181.986 120.793 180.529C118.134 179.073 115.929 176.911 114.42 174.281C113.408 172.54 112.859 170.567 112.828 168.553C112.828 160.239 118.004 148.31 119.718 144.023C122.2 137.828 145.804 94.975 148.644 95.5806C151.483 96.1861 153.021 96.4041 153.021 96.4041L139.581 157.405L182.329 164.417L177.637 180.767L129.489 182.535Z" fill="#F5AB8A"/>
<path d="M128.373 118.011L150.101 129.515L157.281 92.5C157.281 92.5 148.073 93.3296 145.04 97.1928C142.007 101.056 128.373 118.011 128.373 118.011Z" fill="#455A64"/>
<path d="M154.73 159.895L148.882 147.179L146.321 137.782L138.548 131.727C138.548 131.727 135.969 132.029 136.768 134.034C137.567 136.038 141.472 139.641 141.472 139.641L143.773 146.12L140.031 139.592L134.583 136.892L129.176 137.291C129.176 137.291 128.177 139.713 130.678 139.792H133.384L137.47 143.092L140.031 149.299L136.169 143.292L130.46 141.264L126.858 142.19C126.858 142.19 125.853 143.795 127.657 144.007C129.461 144.218 130.684 144.206 130.684 144.206L133.965 146.12L136.865 152.175L131.761 147.967L125.156 147.179C125.156 147.179 124.055 148.772 125.762 149.371C127.504 150.091 129.207 150.899 130.865 151.794L134.546 156.874L154.73 159.895Z" fill="#F5AB8A"/>
<path d="M154.713 159.879L134.504 156.948H134.462V156.912L130.757 151.832L130.793 151.862C129.643 151.256 128.432 150.651 127.161 150.082C126.846 149.936 126.525 149.797 126.198 149.67C125.848 149.557 125.511 149.406 125.193 149.222C125.026 149.109 124.89 148.956 124.797 148.778C124.704 148.599 124.657 148.4 124.66 148.199C124.683 147.805 124.811 147.424 125.03 147.096L125.072 147.036H125.151L131.762 147.817H131.798H131.828C133.427 149.131 135.164 150.554 136.938 152.019L136.72 152.189C135.812 150.281 134.825 148.211 133.814 146.103L133.875 146.164L130.569 144.287H130.642C129.764 144.287 128.862 144.208 127.936 144.117C127.68 144.131 127.424 144.088 127.186 143.992C126.949 143.895 126.736 143.748 126.561 143.56C126.419 143.322 126.373 143.038 126.434 142.767C126.482 142.515 126.574 142.273 126.707 142.052V141.998H126.767L130.4 141.065H130.442H130.49L136.205 143.106H136.26V143.148L140.128 149.155L139.85 149.301L138.476 145.97L137.265 143.094L137.307 143.155L133.203 139.848L133.305 139.885H131.756C131.22 139.905 130.684 139.887 130.151 139.83C129.863 139.796 129.591 139.681 129.365 139.499C129.139 139.317 128.969 139.075 128.874 138.801C128.734 138.257 128.776 137.683 128.995 137.166L129.031 137.075H129.128L134.534 136.675H134.577H134.613L140.062 139.382H140.104V139.425C141.384 141.653 142.629 143.829 143.84 145.952L143.579 146.073C142.792 143.863 142.023 141.725 141.285 139.642L141.321 139.697C139.947 138.437 138.679 137.066 137.531 135.598C137.266 135.249 137.026 134.883 136.811 134.502C136.573 134.099 136.456 133.637 136.472 133.169C136.502 132.934 136.587 132.708 136.721 132.511C136.855 132.315 137.033 132.152 137.241 132.037C137.632 131.817 138.061 131.673 138.506 131.613H138.554L138.597 131.65L146.358 137.705V137.741L148.895 147.145L154.664 159.891L148.737 147.218L146.158 137.82L146.195 137.88L138.409 131.862H138.5C138.093 131.92 137.701 132.053 137.344 132.255C137.169 132.349 137.019 132.483 136.907 132.646C136.794 132.81 136.722 132.997 136.696 133.194C136.647 134.005 137.235 134.78 137.743 135.489C138.886 136.941 140.146 138.298 141.509 139.546V139.576L143.815 146L143.555 146.122L139.808 139.594L139.868 139.655L134.419 136.954H134.498L129.092 137.354L129.225 137.263C129.034 137.71 128.994 138.207 129.11 138.68C129.186 138.902 129.324 139.098 129.509 139.243C129.694 139.389 129.917 139.477 130.151 139.497C130.666 139.55 131.184 139.567 131.701 139.546H133.342L133.384 139.582L137.489 142.888V142.924L138.7 145.807L140.074 149.131L139.795 149.276L135.933 143.27L136.012 143.33L130.303 141.302H130.394L126.791 142.228L126.882 142.155C126.752 142.326 126.669 142.528 126.643 142.74C126.616 142.953 126.647 143.169 126.731 143.366C126.852 143.526 127.025 143.638 127.221 143.681C127.439 143.739 127.662 143.773 127.887 143.784C128.801 143.881 129.703 143.942 130.557 143.954H130.599H130.636L133.935 145.879H133.977V145.922L136.877 152.013L137.15 152.589L136.653 152.183L131.556 147.944H131.622L125.12 147.314L125.242 147.26C125.047 147.543 124.934 147.874 124.915 148.217C124.909 148.379 124.944 148.54 125.019 148.684C125.093 148.828 125.203 148.951 125.338 149.04C125.641 149.21 125.959 149.35 126.289 149.458C126.622 149.591 126.943 149.737 127.264 149.876C128.535 150.481 129.74 151.087 130.896 151.692C132.198 153.509 133.427 155.192 134.565 156.779L134.498 156.736L154.713 159.879Z" fill="#FFBCBC"/>
<g opacity="0.3">
<path d="M225.477 180.816C225.477 180.816 220.513 191.219 214.065 194.265C208.078 197.093 204.282 197.698 197.15 197.184C193.675 196.935 182.33 194.762 178.225 193.551L150.576 181.682L208.695 190.844L225.477 180.816Z" fill="black"/>
</g>
<path d="M239.656 103.266C239.656 103.266 250.057 99.578 250.263 122.897C250.469 146.216 223.098 185.351 218.437 189.203C213.775 193.054 208.441 195.645 194.396 193.562C176.773 190.953 151.467 181.718 151.467 181.718L166.941 167.301L198.367 165.884L223.91 113.378C223.91 113.378 230.938 102.248 239.656 103.266Z" fill="#F5AB8A"/>
<path d="M177.635 180.863C177.635 180.863 185.426 185.768 194.217 185.514C203.007 185.26 210.805 188.105 211.937 187.33C213.069 186.555 213.19 185.157 211.937 184.527C210.684 183.897 205.35 183.158 205.35 183.158L200.755 181.269C200.755 181.269 216.459 182.656 217.706 182.026C218.954 181.396 220.219 180.518 219.716 179.138C219.605 178.745 219.374 178.397 219.056 178.141C218.739 177.886 218.35 177.734 217.943 177.709C217.943 177.709 221.333 177.836 221.212 176.455C221.112 175.869 220.893 175.31 220.568 174.812C220.243 174.314 219.819 173.888 219.323 173.561C218.82 173.313 212.234 170.63 212.234 170.63L203.758 168.947L211.895 168.62L219.002 170.6C219.002 170.6 221.841 170.927 221.206 168.535C220.57 166.143 211.907 163.509 211.907 163.509L200.846 162.746C200.846 162.746 209.394 161.499 210.272 158.859C211.15 156.219 209.667 154.711 209.667 154.711C209.667 154.711 203.613 157.103 200.749 157.605C197.886 158.108 194.338 159.234 189.688 161.123C187.172 162.118 184.713 163.25 182.321 164.514" fill="#F5AB8A"/>
<path d="M182.327 164.542C182.327 164.542 182.472 164.445 182.769 164.288C183.065 164.13 183.519 163.888 184.107 163.591C185.317 162.986 187.061 162.168 189.392 161.205C192.208 160.009 195.096 158.986 198.037 158.142C198.903 157.911 199.805 157.699 200.749 157.536C201.711 157.343 202.661 157.094 203.595 156.791C205.526 156.186 207.542 155.459 209.649 154.642L209.727 154.611L209.776 154.666C210.156 155.124 210.432 155.659 210.584 156.234C210.737 156.809 210.763 157.41 210.66 157.996L210.575 158.444L210.448 158.886C210.344 159.189 210.177 159.466 209.957 159.698C209.512 160.143 208.994 160.51 208.426 160.782C207.263 161.341 206.046 161.779 204.793 162.09C203.509 162.433 202.208 162.708 200.894 162.913V162.647L211.949 163.397H211.985C214.268 164.091 216.487 164.982 218.615 166.062C219.159 166.35 219.681 166.678 220.177 167.043C220.43 167.232 220.665 167.445 220.879 167.678C221.113 167.914 221.287 168.203 221.387 168.52C221.477 168.841 221.5 169.177 221.454 169.507C221.429 169.68 221.37 169.847 221.279 169.997C221.189 170.147 221.069 170.277 220.927 170.379C220.356 170.727 219.683 170.87 219.02 170.785L211.889 168.799H211.937L203.8 169.126V168.817L209.854 170.028L212.276 170.512H212.306L219.371 173.437C219.932 173.777 220.403 174.247 220.746 174.805C221.124 175.337 221.335 175.97 221.351 176.622C221.321 176.8 221.247 176.967 221.136 177.109C221.025 177.25 220.881 177.362 220.715 177.433C220.425 177.577 220.115 177.677 219.795 177.73C219.18 177.845 218.555 177.893 217.93 177.875V177.567C218.21 177.581 218.483 177.653 218.734 177.777C218.985 177.901 219.208 178.074 219.389 178.287C219.757 178.703 219.958 179.24 219.953 179.795C219.925 180.068 219.844 180.333 219.713 180.574C219.582 180.815 219.404 181.028 219.19 181.2C218.799 181.538 218.366 181.823 217.9 182.048C217.782 182.118 217.653 182.169 217.519 182.199C217.389 182.226 217.257 182.244 217.125 182.253C216.871 182.284 216.623 182.29 216.369 182.296C215.866 182.296 215.37 182.296 214.873 182.296C213.886 182.296 212.906 182.235 211.931 182.187C208.044 181.981 204.297 181.69 200.707 181.381L200.773 181.109L205.368 182.998C207.057 183.252 208.71 183.525 210.308 183.888C210.714 183.985 211.108 184.082 211.519 184.215C211.926 184.317 212.298 184.526 212.597 184.821C212.742 184.984 212.849 185.177 212.91 185.386C212.971 185.596 212.984 185.817 212.948 186.032C212.868 186.449 212.655 186.829 212.343 187.116C212.272 187.189 212.195 187.255 212.113 187.316C212.03 187.388 211.936 187.445 211.834 187.485C211.637 187.54 211.433 187.564 211.229 187.558C210.841 187.551 210.455 187.517 210.072 187.455C209.322 187.352 208.583 187.207 207.863 187.073C206.41 186.801 205.005 186.534 203.625 186.316C201.072 185.891 198.493 185.65 195.906 185.596C195.3 185.596 194.695 185.596 194.144 185.596C193.593 185.596 193 185.596 192.449 185.596C191.898 185.596 191.359 185.523 190.839 185.469L189.313 185.257C186.267 184.713 183.307 183.767 180.51 182.441C179.548 181.981 178.827 181.593 178.349 181.321C177.871 181.048 177.635 180.879 177.635 180.879L177.822 180.982L178.367 181.278C178.852 181.539 179.578 181.92 180.547 182.362C183.348 183.652 186.305 184.572 189.343 185.099L190.857 185.299C191.377 185.354 191.91 185.378 192.461 185.42C193.012 185.463 193.569 185.42 194.138 185.42C194.707 185.42 195.307 185.42 195.906 185.42C198.505 185.47 201.096 185.707 203.661 186.129C205.035 186.341 206.44 186.601 207.899 186.873C208.619 187.001 209.358 187.14 210.103 187.243C210.473 187.301 210.847 187.335 211.223 187.346C211.402 187.349 211.582 187.327 211.755 187.279C211.914 187.206 212.056 187.101 212.173 186.97C212.443 186.719 212.625 186.388 212.694 186.026C212.723 185.848 212.711 185.666 212.661 185.493C212.611 185.321 212.523 185.161 212.403 185.027C212.134 184.756 211.798 184.561 211.428 184.464C211.053 184.336 210.66 184.246 210.266 184.149C208.674 183.791 207.027 183.543 205.338 183.277L200.737 181.4L199.883 181.048L200.804 181.127C204.394 181.43 208.141 181.733 212.022 181.92C212.99 181.969 213.971 182.005 214.952 182.029C215.448 182.029 215.939 182.029 216.435 182.029C216.677 182.029 216.925 182.029 217.168 181.987C217.288 181.981 217.407 181.964 217.525 181.938C217.634 181.916 217.739 181.875 217.834 181.817C218.268 181.599 218.675 181.328 219.044 181.012C219.229 180.864 219.383 180.681 219.496 180.473C219.61 180.265 219.68 180.037 219.704 179.801C219.704 179.327 219.532 178.869 219.22 178.511C218.909 178.161 218.476 177.944 218.009 177.906V177.597C218.618 177.613 219.226 177.566 219.825 177.458C220.115 177.41 220.397 177.32 220.661 177.191C220.78 177.143 220.886 177.066 220.967 176.967C221.049 176.867 221.104 176.749 221.127 176.622C221.097 176.034 220.9 175.467 220.558 174.987C220.242 174.475 219.811 174.043 219.299 173.728L212.258 170.815H212.288L209.866 170.337L203.812 169.126L202.511 168.865L203.837 168.811L211.973 168.49H212.022L219.075 170.458C219.66 170.536 220.256 170.414 220.764 170.113C220.973 169.924 221.118 169.676 221.181 169.402C221.244 169.128 221.221 168.841 221.115 168.581C220.887 168.043 220.503 167.585 220.013 167.267C219.53 166.909 219.02 166.589 218.487 166.31C216.37 165.239 214.162 164.357 211.889 163.676H211.919L200.864 162.907L199.653 162.822L200.834 162.634C202.139 162.432 203.432 162.162 204.708 161.823C205.935 161.518 207.128 161.09 208.268 160.545C208.811 160.288 209.307 159.94 209.733 159.516C209.934 159.313 210.085 159.066 210.175 158.795L210.296 158.378L210.381 157.948C210.478 157.398 210.456 156.834 210.316 156.294C210.176 155.754 209.922 155.25 209.57 154.817H209.691C207.59 155.629 205.574 156.355 203.637 156.955C202.695 157.254 201.737 157.501 200.767 157.693C199.829 157.857 198.951 158.063 198.067 158.299C195.126 159.13 192.239 160.141 189.422 161.327C187.091 162.265 185.311 163.083 184.119 163.652L182.769 164.318L182.327 164.542Z" fill="#FFBCBC"/>
<path d="M201.158 175.238C202.032 175.367 202.914 175.436 203.798 175.444C205.426 175.541 207.666 175.729 210.124 176.098C212.582 176.467 214.774 176.958 216.36 177.345C217.203 177.611 218.065 177.813 218.939 177.951C218.143 177.558 217.307 177.254 216.445 177.043C214.396 176.431 212.306 175.966 210.191 175.65C208.079 175.327 205.946 175.151 203.81 175.123C202.924 175.063 202.035 175.102 201.158 175.238Z" fill="#FFBCBC"/>
<path d="M146.075 130.02L145.295 133.768C145.176 134.224 145.099 134.69 145.064 135.16C145.239 134.723 145.374 134.271 145.47 133.81C145.718 132.853 146.033 131.6 146.415 130.098C147.189 126.956 148.231 122.608 149.351 117.794C151.167 109.922 152.674 103.219 153.056 101.136V100.973L152.923 101.063C152.69 101.205 152.472 101.372 152.275 101.56C152.528 101.459 152.77 101.332 152.995 101.179L152.892 101.106C152.287 103.14 150.695 109.795 148.86 117.685" fill="#263238"/>
<path d="M211.135 131.726L246.248 147.373C246.248 147.373 259.876 105.313 239.801 98.5371L229.733 100.893L211.135 131.726Z" fill="#455A64"/>
<path d="M177.644 180.814C177.644 180.899 166.868 181.371 153.579 181.862C140.29 182.352 129.502 182.679 129.496 182.594C129.49 182.51 140.266 182.037 153.567 181.547C166.868 181.056 177.638 180.729 177.644 180.814Z" fill="#FFBCBC"/>
<path d="M134.537 156.878C134.537 156.933 133.847 156.999 132.763 157.266C131.354 157.622 130.012 158.207 128.792 158.998C127.567 159.777 126.513 160.797 125.692 161.995C125.087 162.921 124.857 163.588 124.802 163.569C124.748 163.551 124.802 163.394 124.923 163.091C125.082 162.667 125.284 162.261 125.529 161.88C126.316 160.611 127.383 159.538 128.647 158.743C129.883 157.927 131.261 157.348 132.709 157.036C133.148 156.945 133.593 156.886 134.041 156.86C134.206 156.836 134.374 156.842 134.537 156.878Z" fill="#FFBCBC"/>
<path d="M217.189 126.719C217.167 126.831 217.133 126.941 217.086 127.046C216.989 127.294 216.874 127.597 216.735 127.972C216.426 128.765 215.954 129.91 215.348 131.321C214.138 134.136 212.394 137.981 210.324 142.166C208.253 146.35 206.279 150.092 204.82 152.78C204.088 154.125 203.495 155.202 203.071 155.953L202.58 156.807C202.528 156.91 202.463 157.006 202.387 157.092C202.416 156.981 202.461 156.875 202.52 156.777C202.635 156.541 202.786 156.25 202.962 155.893L204.621 152.677C206.031 149.959 207.975 146.21 210.069 142.026C212.164 137.842 213.92 134.021 215.173 131.23C215.778 129.861 216.281 128.741 216.644 127.924L217.05 127.022C217.083 126.915 217.13 126.813 217.189 126.719Z" fill="#263238"/>
<path d="M217.181 36.7828C215.819 36.7828 215.178 28.2911 207.489 23.4043C199.8 18.5176 193.713 23.4043 185.703 18.2773C180.337 14.9126 175.691 8.10325 177.694 4.41816C180.177 -1.10946 197.798 -2.47136 208.691 6.3408C220.865 16.595 219.103 36.2221 217.181 36.7828Z" fill="#141C51"/>
<path d="M216.762 58.5092C215.585 57.4443 220.508 50.8897 217.015 41.3927C213.522 31.8957 205.11 30.6187 201.496 20.6998C199.028 14.1044 199.405 5.61712 203.512 4.55615C209.223 2.55754 225.328 15.3675 229.058 30.1684C232.965 46.9994 218.784 59.6128 216.762 58.5092Z" fill="#141C51"/>
<path d="M186.744 15.6182C187.705 27.795 170.725 40.853 162.715 37.4083C158.55 35.5657 157.189 28.6762 157.429 24.3502C157.796 19.8774 159.824 15.7044 163.116 12.6541C166.4 9.12919 174.409 2.88059 180.656 5.92479C182.402 6.90103 183.874 8.30026 184.938 9.99401C186.001 11.6878 186.622 13.6217 186.744 15.6182Z" fill="#141C51"/>
<path d="M123.225 58.03L121.375 51.4C124.573 46.2068 125.713 40.0052 124.57 34.0142C123.428 28.0232 120.086 22.6762 115.201 19.0242C110.317 15.3722 104.243 13.6793 98.1732 14.2783C92.1038 14.8773 86.4779 17.7249 82.4014 22.2613C78.3249 26.7977 76.0927 32.6948 76.1434 38.7935C76.1942 44.8922 78.5243 50.7514 82.6757 55.2193C86.8271 59.6872 92.4996 62.4408 98.5781 62.9387C104.657 63.4366 110.702 61.6428 115.525 57.91L123.225 58.03Z" fill="#FAFAFA"/>
<path d="M123.224 58.0297H115.294L115.424 57.8497L115.574 58.0097C111.754 60.9783 107.141 62.7518 102.316 63.1077C97.4912 63.4635 92.6686 62.3857 88.4541 60.0097C84.3982 57.7069 81.0805 54.2985 78.8879 50.1819C76.6952 46.0654 75.7181 41.4104 76.0702 36.7597C76.4224 32.1089 78.0895 27.6541 80.877 23.9147C83.6645 20.1753 87.4577 17.3054 91.8141 15.6397C95.4113 14.2745 99.2733 13.7511 103.104 14.1097C109.416 14.7706 115.229 17.8444 119.328 22.6892C123.428 27.5341 125.497 33.7753 125.104 40.1097C124.847 44.1262 123.596 48.016 121.464 51.4297V51.3497C122.034 53.4997 122.464 55.1697 122.794 56.3497C122.934 56.8897 123.034 57.2997 123.114 57.6097C123.162 57.7457 123.196 57.8865 123.214 58.0297L123.074 57.5797C122.984 57.2697 122.854 56.8497 122.694 56.2997C122.354 55.1697 121.874 53.5297 121.264 51.4297C123.391 47.9289 124.596 43.9468 124.768 39.8545C124.94 35.7622 124.073 31.6929 122.248 28.026C120.423 24.3591 117.7 21.2139 114.331 18.8837C110.963 16.5535 107.059 15.1141 102.984 14.6997C99.2304 14.3499 95.4466 14.8665 91.9241 16.2097C88.2295 17.6223 84.9442 19.9316 82.3641 22.9297C79.1332 26.694 77.1367 31.3599 76.6446 36.2961C76.1526 41.2324 77.1887 46.2006 79.6129 50.5286C82.0371 54.8566 85.7324 58.3355 90.1986 60.4945C94.6649 62.6534 99.6865 63.3883 104.584 62.5997C108.529 61.9457 112.255 60.3355 115.434 57.9097L116.124 57.3897L115.584 58.0697L115.494 57.8897L121.194 58.0397H122.684L123.224 58.0297Z" fill="#263238"/>
<path d="M98.5633 28.4191L99.3033 40.1291C99.3338 40.5912 99.5311 41.0264 99.8586 41.3539C100.186 41.6813 100.621 41.8786 101.083 41.9091C101.57 41.9377 102.049 41.7782 102.421 41.4636C102.793 41.1491 103.03 40.7036 103.083 40.2191L104.383 28.4491C104.408 28.2393 104.387 28.0267 104.322 27.8256C104.257 27.6245 104.15 27.4396 104.008 27.2833C103.866 27.127 103.692 27.0029 103.498 26.9194C103.304 26.8359 103.094 26.7949 102.883 26.7991H100.033C99.8274 26.7996 99.6239 26.843 99.4357 26.9266C99.2476 27.0102 99.0789 27.1321 98.9406 27.2846C98.8023 27.437 98.6972 27.6167 98.6323 27.8121C98.5673 28.0074 98.5438 28.2142 98.5633 28.4191Z" fill="#FF725E"/>
<path d="M104.194 48.5006C104.015 49.0369 103.68 49.5081 103.233 49.8546C102.787 50.2011 102.247 50.4073 101.683 50.4472C101.119 50.4872 100.556 50.3589 100.064 50.0788C99.5731 49.7987 99.1759 49.3792 98.923 48.8734C98.6701 48.3676 98.5729 47.7982 98.6435 47.2371C98.7141 46.6761 98.9495 46.1485 99.3199 45.7212C99.6903 45.2939 100.179 44.9859 100.724 44.8363C101.27 44.6867 101.847 44.7021 102.384 44.8806C102.74 44.9992 103.07 45.187 103.354 45.4332C103.638 45.6794 103.871 45.9791 104.039 46.3153C104.207 46.6516 104.307 47.0176 104.334 47.3926C104.36 47.7675 104.313 48.144 104.194 48.5006Z" fill="#FF725E"/>
</svg>
