<svg width="24" height="24" viewBox="0 0 24 24" fill="none" xmlns="http://www.w3.org/2000/svg">
<path d="M20.1816 4.18062C18.8411 4.03797 17.5216 3.73975 16.25 3.29198C15.0831 2.87968 13.9637 2.34341 12.9111 1.69237C12.6365 1.52566 12.3213 1.4375 12 1.4375C11.6787 1.4375 11.3635 1.52566 11.0889 1.69237L11.0879 1.69337C10.0355 2.34388 8.91651 2.87981 7.75 3.29198C6.47868 3.73966 5.15959 4.03789 3.81934 4.18065C3.38882 4.22474 2.98997 4.42703 2.70005 4.74834C2.41013 5.06965 2.24976 5.48711 2.25 5.91988V11.1152C2.2507 13.0321 2.76367 14.9139 3.73582 16.566C4.70796 18.218 6.10395 19.5803 7.7793 20.5117L11.1494 22.3847C11.409 22.5307 11.7017 22.6073 11.9995 22.6073C12.2973 22.6073 12.5901 22.5307 12.8496 22.3847L16.2207 20.5117C17.8961 19.5803 19.292 18.218 20.2642 16.566C21.2363 14.9139 21.7493 13.0321 21.75 11.1152V5.91988C21.7503 5.48725 21.5901 5.0699 21.3003 4.7486C21.0106 4.42731 20.612 4.22493 20.1816 4.18062ZM15.9795 10.1826L12.2295 14.1826C12.0514 14.373 11.806 14.4861 11.5456 14.498C11.2853 14.5099 11.0306 14.4195 10.8359 14.2461L8.58594 12.2461C8.38781 12.07 8.26775 11.8224 8.25218 11.5577C8.23661 11.2931 8.32681 11.0331 8.50293 10.835C8.67905 10.6368 8.92667 10.5168 9.1913 10.5012C9.45594 10.4856 9.71593 10.5758 9.91406 10.752L11.4365 12.1045L14.5205 8.81544C14.6141 8.71575 14.7271 8.63624 14.8526 8.58182C14.978 8.5274 15.1133 8.49921 15.25 8.49899C15.445 8.49909 15.6356 8.55616 15.7986 8.6632C15.9615 8.77024 16.0896 8.92256 16.1671 9.10144C16.2446 9.28033 16.2682 9.47796 16.2348 9.67004C16.2015 9.86212 16.1127 10.0403 15.9795 10.1826Z" fill="#4E7E76"/>
</svg>
