<svg width="138" height="35" viewBox="0 0 138 35" fill="none" xmlns="http://www.w3.org/2000/svg">
<path d="M95.0779 18.8428C94.802 18.8609 94.5256 18.8185 94.2652 18.7181C94.0048 18.6177 93.7659 18.4614 93.5627 18.2586C93.3596 18.0557 93.1966 17.8106 93.0833 17.5378C92.97 17.2651 92.9089 16.9703 92.9036 16.6714C92.9036 16.1556 92.9036 14.5722 95.0779 14.5722C95.4775 14.5529 95.8743 14.6535 96.2243 14.8629C96.5744 15.0722 96.8641 15.3822 97.0615 15.7585L99.2453 13.3962C98.7453 12.7253 98.1095 12.1876 97.387 11.8245C96.6644 11.4615 95.8744 11.2828 95.0779 11.3022C91.9643 11.3022 89.8758 13.4581 89.8758 16.6714C89.8734 17.419 90.0164 18.1588 90.2954 18.8428H88.1497C87.7425 18.8428 87.352 18.6678 87.0641 18.3563C86.7761 18.0449 86.6144 17.6225 86.6144 17.182V11.9418H83.5866V22.8194C83.5866 23.0929 83.4861 23.3553 83.3072 23.5488C83.1284 23.7422 82.8858 23.8509 82.6329 23.8509H81.2454V27.1209H82.6329C83.6893 27.1209 84.7025 26.6673 85.4499 25.8598C86.1973 25.0523 86.6179 23.9569 86.6191 22.8142V21.8239C87.1115 22.0166 87.6309 22.116 88.1545 22.1179H99.479V18.8428H95.0779Z" fill="#333333"/>
<path d="M32.6239 5.63379H29.5961V22.0662H32.6239V5.63379Z" fill="#333333"/>
<path d="M76.7684 18.8453H66.2354V13.4349H63.2124V19.2941C63.2137 20.0433 63.4894 20.7614 63.9791 21.2911C64.4689 21.8209 65.1328 22.1191 65.8254 22.1205H77.1928C77.8854 22.1191 78.5493 21.8209 79.0391 21.2911C79.5288 20.7614 79.8045 20.0433 79.8058 19.2941V11.9443H76.7684V18.8453Z" fill="#333333"/>
<path d="M52.1972 18.8453H47.3241V11.9443H44.3011V18.8453H39.4327V11.9443H36.4049V22.8219C36.4049 23.0955 36.3044 23.3579 36.1256 23.5513C35.9468 23.7448 35.7042 23.8535 35.4513 23.8535H34.059V27.1235H35.4465C36.5021 27.1235 37.5145 26.6706 38.2618 25.8642C39.0091 25.0578 39.4302 23.9637 39.4327 22.8219V22.1205H44.7159C45.0953 22.1197 45.4698 22.0281 45.8126 21.8523C46.1569 22.0287 46.5331 22.1203 46.9141 22.1205H52.6073C52.9504 22.1205 53.2902 22.0474 53.6072 21.9053C53.9243 21.7633 54.2123 21.5551 54.4549 21.2926C54.6976 21.0302 54.8901 20.7186 55.0214 20.3757C55.1527 20.0328 55.2203 19.6652 55.2203 19.2941V11.9443H52.1972V18.8453Z" fill="#333333"/>
<path d="M23.8399 18.8453H18.5949C18.5949 18.8453 17.1644 18.7731 14.3035 17.3548L13.0161 20.3359C14.3622 21.023 15.772 21.5538 17.2216 21.9193C17.5183 22.355 17.71 22.8637 17.7795 23.3996C17.1644 24.003 13.9029 23.8741 12.1387 23.8071L10.7082 23.7555C9.54003 23.7245 8.80096 23.4202 8.48149 22.8529C7.81871 21.6305 8.70083 18.9794 9.23487 17.8912L7.895 17.1227L6.5599 16.3542C6.31196 16.8699 4.1758 21.3829 5.86851 24.5033C6.46454 25.6123 7.7758 26.9481 10.6367 27.0255L12.0338 27.077C12.9112 27.1131 13.7742 27.1441 14.6039 27.1441C17.2598 27.1441 19.5151 26.7934 20.4449 24.983C20.6512 24.5434 20.7732 24.0632 20.8035 23.5712C20.8338 23.0793 20.7719 22.5858 20.6214 22.1205H24.2452C24.9382 22.1205 25.6028 21.8227 26.0928 21.2926C26.5829 20.7626 26.8582 20.0437 26.8582 19.2941V11.9443H23.8399V18.8453Z" fill="#333333"/>
<path d="M47.4998 23.959H47.4807C46.7486 23.959 46.1552 24.5998 46.1552 25.3902C46.1552 26.1807 46.7486 26.8215 47.4807 26.8215H47.4998C48.2319 26.8215 48.8253 26.1807 48.8253 25.3902C48.8253 24.5998 48.2319 23.959 47.4998 23.959Z" fill="#333333"/>
<path d="M71.5949 23.959H71.5758C70.8437 23.959 70.2502 24.5998 70.2502 25.3902C70.2502 26.1807 70.8437 26.8215 71.5758 26.8215H71.5949C72.327 26.8215 72.9204 26.1807 72.9204 25.3902C72.9204 24.5998 72.327 23.959 71.5949 23.959Z" fill="#333333"/>
<path d="M44.0971 23.959H44.078C43.3459 23.959 42.7524 24.5998 42.7524 25.3902C42.7524 26.1807 43.3459 26.8215 44.078 26.8215H44.0971C44.8292 26.8215 45.4226 26.1807 45.4226 25.3902C45.4226 24.5998 44.8292 23.959 44.0971 23.959Z" fill="#333333"/>
<path d="M24.966 23.959H24.9469C24.2148 23.959 23.6213 24.5998 23.6213 25.3902C23.6213 26.1807 24.2148 26.8215 24.9469 26.8215H24.966C25.6981 26.8215 26.2915 26.1807 26.2915 25.3902C26.2915 24.5998 25.6981 23.959 24.966 23.959Z" fill="#333333"/>
<path d="M1.34463 18.8477H1.32556C0.593474 18.8477 0 19.4885 0 20.2789C0 21.0694 0.593474 21.7102 1.32556 21.7102H1.34463C2.07672 21.7102 2.6702 21.0694 2.6702 20.2789C2.6702 19.4885 2.07672 18.8477 1.34463 18.8477Z" fill="#EE7B73"/>
<path d="M14.9768 28.4561H14.9578C14.2257 28.4561 13.6322 29.0969 13.6322 29.8873C13.6322 30.6778 14.2257 31.3186 14.9578 31.3186H14.9768C15.7089 31.3186 16.3024 30.6778 16.3024 29.8873C16.3024 29.0969 15.7089 28.4561 14.9768 28.4561Z" fill="#333333"/>
<path d="M11.5712 28.4561H11.5521C10.82 28.4561 10.2266 29.0969 10.2266 29.8873C10.2266 30.6778 10.82 31.3186 11.5521 31.3186H11.5712C12.3033 31.3186 12.8968 30.6778 12.8968 29.8873C12.8968 29.0969 12.3033 28.4561 11.5712 28.4561Z" fill="#333333"/>
<path d="M55.3256 6.59277H55.3065C54.5744 6.59277 53.981 7.23357 53.981 8.02404C53.981 8.8145 54.5744 9.4553 55.3065 9.4553H55.3256C56.0577 9.4553 56.6512 8.8145 56.6512 8.02404C56.6512 7.23357 56.0577 6.59277 55.3256 6.59277Z" fill="#333333"/>
<path d="M51.92 6.59277H51.9009C51.1688 6.59277 50.5753 7.23357 50.5753 8.02404C50.5753 8.8145 51.1688 9.4553 51.9009 9.4553H51.92C52.652 9.4553 53.2455 8.8145 53.2455 8.02404C53.2455 7.23357 52.652 6.59277 51.92 6.59277Z" fill="#333333"/>
<path d="M53.6233 3.18652H53.6042C52.8722 3.18652 52.2787 3.82732 52.2787 4.61779C52.2787 5.40825 52.8722 6.04905 53.6042 6.04905H53.6233C54.3554 6.04905 54.9489 5.40825 54.9489 4.61779C54.9489 3.82732 54.3554 3.18652 53.6233 3.18652Z" fill="#333333"/>
<path d="M135.169 8.31627C129.995 2.17861 129.147 1.61126 129.147 1.61126C129.147 1.61126 124.965 -2.18997 120.888 1.88462C118.409 4.36547 113.45 5.22681 113.45 5.22681C113.45 5.22681 106.774 6.89791 106.641 16.7491C106.507 26.6003 110.079 33.032 120.159 33.9862C126.271 34.5535 129.266 35.7243 133.743 29.8961C134.268 28.7929 134.67 27.6259 134.94 26.4198C135.126 25.053 136.847 21.7779 136.847 21.7779C136.847 21.7779 140.338 14.4643 135.169 8.31627ZM122.295 30.2675C120.025 30.2675 110.536 27.6886 110.536 19.0546C110.536 12.6436 116.621 6.46466 122.295 6.46466C128.312 6.46466 133.071 10.9054 133.071 18.25C133.085 24.888 128.265 30.2675 122.309 30.2675H122.295Z" fill="url(#paint0_linear_827_167)"/>
<defs>
<linearGradient id="paint0_linear_827_167" x1="111.085" y1="6.22741" x2="135.174" y2="28.4927" gradientUnits="userSpaceOnUse">
<stop stop-color="#85C48D"/>
<stop offset="0.31" stop-color="#6DC09C"/>
<stop offset="0.95" stop-color="#30B7C4"/>
<stop offset="1" stop-color="#2BB6C7"/>
</linearGradient>
</defs>
</svg>
