<svg width="40" height="40" viewBox="0 0 40 40" fill="none" xmlns="http://www.w3.org/2000/svg">
<path d="M36.4217 26.2778C36.4217 30.6259 32.897 34.1505 28.549 34.1505C24.2009 34.1505 20.6763 30.6259 20.6763 26.2778C20.6763 21.9297 24.2009 18.4051 28.549 18.4051C29.4426 18.4051 30.298 18.5609 31.0987 18.8354C29.327 8.6743 21.4033 2.12153 28.7486 7.51459C36.8934 13.4949 36.4304 26.0372 36.4213 26.2671C36.4213 26.2706 36.4217 26.2738 36.4217 26.2778Z" fill="#EE7B73"/>
<path d="M19.1023 26.2778C19.1023 30.6259 15.5777 34.1505 11.2296 34.1505C6.88148 34.1505 3.35685 30.6259 3.35685 26.2778C3.35685 21.9297 6.88154 18.4051 11.2297 18.4051C12.1233 18.4051 12.9786 18.5609 13.7794 18.8354C12.0077 8.6743 4.08399 2.12153 11.4292 7.51459C19.574 13.4949 19.1111 26.0372 19.1019 26.2671C19.1019 26.2706 19.1023 26.2738 19.1023 26.2778Z" fill="#EE7B73"/>
</svg>
