<svg width="32" height="32" viewBox="0 0 32 32" fill="none" xmlns="http://www.w3.org/2000/svg">
<g clip-path="url(#clip0_5331_1505)">
<path d="M3.49538 31.583C2.41928 29.9689 1.62792 29.6354 0.0244642 22.6865C-0.120657 22.0576 0.40033 21.4702 1.04556 21.5445C4.30842 21.9216 7.16397 21.3796 9.55266 19.9329C4.08217 15.3031 3.0742 7.39727 3.99993 2.77351C4.16186 1.96453 5.22002 1.74472 5.69007 2.42402C8.60206 6.63191 16.8162 14.811 22.6339 10.1233C24.6763 8.44949 26.573 7.76932 28.2714 8.10175C29.9981 8.43968 31.0046 9.62508 31.8562 11.1025C32.1893 11.633 31.9175 12.3364 31.3131 12.5042C27.5093 13.5609 27.3551 14.2612 25.9374 18.5553C23.3475 26.401 20.2371 27.8387 13.9943 27.7677C11.9493 27.7444 10.1828 27.7244 8.79218 28.744C7.49615 29.6883 6.22106 30.7182 4.8574 31.798C4.42804 32.1379 3.79931 32.0389 3.49538 31.583ZM31.8482 11.0901C31.8498 11.0926 31.8515 11.0952 31.8531 11.0977C31.8514 11.0949 31.8497 11.0924 31.8482 11.0901Z" fill="#4E7E76"/>
<path d="M20.0891 9.41376C17.6779 10.2094 14.7592 8.75066 12.2168 6.69071C12.6699 4.80451 12.9618 3.03955 13.038 0.904606C13.0655 0.134625 13.9618 -0.274114 14.5617 0.207123C17.5479 2.60394 19.5904 5.78511 20.0891 9.41376Z" fill="#4E7E76"/>
</g>
<defs>
<clipPath id="clip0_5331_1505">
<rect width="32" height="32" fill="white"/>
</clipPath>
</defs>
</svg>