<svg width="32" height="32" viewBox="0 0 32 32" fill="none" xmlns="http://www.w3.org/2000/svg">
<path d="M22.9088 3.65305C22.0509 2.84509 20.9523 2.45703 19.8452 2.45703C18.599 2.45703 17.3413 2.94874 16.4032 3.88721L16.0002 4.29027L15.5971 3.88705C14.659 2.94897 13.4014 2.45703 12.1552 2.45703C11.0479 2.45703 9.94983 2.84509 9.09162 3.65305C7.20429 5.43012 7.17058 8.40166 8.99058 10.2217L16.0003 17.2313L23.0099 10.2217C24.8299 8.40158 24.7962 5.43004 22.9088 3.65305Z" fill="#4E7E76"/>
<path d="M13.5431 29.543L13.5377 22.5977C13.5377 19.2435 11.8195 17.277 9.54385 16.5363C8.90871 16.3441 8.33967 15.839 7.81042 15.3096C6.84886 14.3081 5.8209 12.9385 4.48929 12.9555L4.48806 12.9504C4.05368 12.9561 3.61938 13.1131 3.24279 13.4897C2.35965 14.3729 2.71646 15.7222 3.4781 16.4838L5.95217 18.9576C6.18302 19.1885 6.31283 19.5017 6.31283 19.8282C6.31283 20.1547 6.18302 20.4678 5.95217 20.6988L2.60758 17.3543C2.0263 16.7731 1.63132 15.9874 1.52367 15.1988C1.38962 14.2164 1.6908 13.3003 2.37188 12.6193C2.88198 12.1092 3.5078 11.8212 4.19042 11.7484L3.69087 9.73074C3.65301 2.24298 0.000307797 3.15775 0.000307797 4.91919L0 18.0643C0 18.8808 0.316261 19.6503 0.890917 20.2309C7.00714 26.4038 6.15593 24.4151 6.15593 29.543H13.5431Z" fill="#4E7E76"/>
<path d="M31.9998 4.91915C31.9998 3.15779 28.3471 2.24294 28.3092 9.73078L27.8097 11.7485C28.4923 11.8213 29.1181 12.1091 29.6282 12.6193C30.3093 13.3004 30.6105 14.2165 30.4764 15.1989C30.3688 15.9874 29.9739 16.7732 29.3925 17.3544L26.0479 20.6988C25.8171 20.4678 25.6873 20.1548 25.6873 19.8282C25.6873 19.5018 25.8171 19.1885 26.0479 18.9577L28.522 16.4838C29.2836 15.7222 29.6404 14.3728 28.7573 13.4897C28.3807 13.1132 27.9463 12.9562 27.512 12.9505L27.5108 12.9556C26.1792 12.9386 25.1512 14.3082 24.1897 15.3096C23.6603 15.8391 23.0913 16.344 22.4562 16.5363C20.1805 17.277 18.4624 19.2435 18.4624 22.5977L18.457 29.543H25.8442C25.8442 24.4152 24.9929 26.4038 31.1092 20.2309C31.6839 19.6501 32.0001 18.8807 32.0001 18.0643L31.9998 4.91915Z" fill="#4E7E76"/>
</svg>