<svg width="249" height="249" viewBox="0 0 249 249" fill="none" xmlns="http://www.w3.org/2000/svg">
<path d="M218.597 51.9125C199.126 32.933 182.552 8.06551 155.016 0.772599C154.031 0.510654 153.026 0.328119 152.011 0.226762C135.916 -1.36604 122.447 5.5958 110.317 15.9669C92.4757 31.4207 68.678 33.5057 47.1433 40.6823C46.256 40.9771 45.3883 41.3267 44.5454 41.7292C-4.12713 65.156 -5.84701 127.526 6.35507 173.1C21.5353 233.707 77.9925 244.687 132.721 248.928C133.327 248.928 133.925 249 134.531 249H163.289C165.371 249.003 167.442 248.72 169.445 248.159C196.918 240.472 219.665 218.862 224.526 190.236C226.228 180.509 231.532 171.892 236.294 163.275C242.63 152.796 244.857 140.752 248.007 129.459C248.41 128.078 248.671 126.66 248.785 125.226C250.741 97.4148 239.227 70.874 218.597 51.9125ZM197.452 197.44C179.836 217.752 154.002 229.135 122.746 230.352H122.012L121.279 230.289C98.2961 228.338 73.3036 218.656 54.5207 204.339C31.5649 186.925 19.2179 163.973 19.6977 139.714C19.4895 117.012 28.288 94.1308 44.482 75.2856C59.7263 57.481 80.0189 44.6019 102.741 38.311L102.967 38.2483L103.193 38.1946C111.653 36.2297 120.31 35.2151 129 35.1701C142.351 35.0724 155.554 37.9281 167.643 43.5279C178.714 48.7406 188.531 56.2303 196.438 65.4961C211.491 82.999 220.045 106.175 220.534 130.765C221.041 155.973 212.84 179.659 197.452 197.44Z" fill="url(#paint0_linear_323_2437)"/>
<defs>
<linearGradient id="paint0_linear_323_2437" x1="39.6603" y1="45.8636" x2="185.663" y2="239.301" gradientUnits="userSpaceOnUse">
<stop stop-color="#86C590"/>
<stop offset="1" stop-color="#2FB7C5"/>
</linearGradient>
</defs>
</svg>
