<svg width="32" height="32" viewBox="0 0 32 32" fill="none" xmlns="http://www.w3.org/2000/svg">
<path d="M0.906288 28H4.09371C4.5931 28 5 27.5847 5 27.0751V14.9249C5 14.4153 4.5931 14 4.09371 14H0.906288C0.406905 14 0 14.4153 0 14.9249V27.0751C0 27.5847 0.406905 28 0.906288 28Z" fill="#4E7E76"/>
<path d="M25.3695 12.6528C26.4061 12.6528 27.3124 12.4288 28.0817 11.9872C29.5616 11.1424 30.181 9.6896 30.4417 8.6272C30.8003 7.168 31.9217 4.9472 31.9347 4.9216C32.0325 4.7232 32.0195 4.4864 31.9021 4.3008C31.7782 4.1088 31.5696 4.0128 31.3414 4C27.1363 4.0576 24.8936 5.8304 23.7462 7.3024C23.3485 7.8272 23.029 8.4032 22.7878 9.0304C22.7031 8.8896 22.6183 8.7488 22.5205 8.6144C21.699 7.552 20.0887 6.2784 17.0832 6.24C16.842 6.2208 16.6399 6.3488 16.5225 6.5408C16.3987 6.7264 16.3856 6.9632 16.4899 7.1616C16.4965 7.1808 17.2658 8.7104 17.507 9.7024C17.696 10.4768 18.1524 11.5392 19.2477 12.1664C19.8149 12.4864 20.4799 12.6528 21.2296 12.6528C21.5621 12.6528 21.9142 12.6144 22.2728 12.5504V19.3856L21.4252 19.5264C20.9167 20.3584 19.9909 20.9216 18.9282 20.9216L13.8104 20.6784C13.4518 20.6592 13.1715 20.3584 13.191 20.0064C13.2106 19.6544 13.517 19.3856 13.8756 19.3984L18.9608 19.6416C19.0391 19.6416 19.1238 19.6352 19.2021 19.6224C20.4669 19.424 20.695 17.7472 19.6454 17.024C19.2607 16.7616 18.7848 16.6016 18.2763 16.6016H15.2643C13.9082 16.6016 13.3084 16.16 12.5456 15.6032C12.0501 15.2384 11.4894 14.8224 10.6875 14.5216C8.97943 13.8752 7.22567 14.2208 6 14.6688V25.7792C8.40571 26.592 13.1976 28 17.4222 28C22.4879 28 28.7858 23.2832 30.5917 21.8368C31.0741 21.4528 31.348 20.8832 31.348 20.2752C31.348 19.6736 31.0807 19.1168 30.6178 18.7264C30.1549 18.3424 29.5486 18.1824 28.9488 18.2784L23.5767 19.168V12.448C24.2091 12.5824 24.8089 12.6528 25.3695 12.6528Z" fill="#4E7E76"/>
</svg>