<svg width="16" height="16" viewBox="0 0 16 16" fill="none" xmlns="http://www.w3.org/2000/svg">
<path d="M8 0C3.5888 0 0 3.5888 0 8C0 12.4112 3.5888 16 8 16C12.4112 16 16 12.4112 16 8C16 3.5888 12.4112 0 8 0ZM14.3985 5.33333H11.5337C11.2821 3.71267 10.8039 2.35733 10.1697 1.41933C12.0808 2.05107 13.6272 3.4896 14.3985 5.33333ZM10.6667 8C10.6667 8.5588 10.6383 9.09173 10.5897 9.6H5.41027C5.36173 9.09173 5.33333 8.5588 5.33333 8C5.33333 7.4412 5.36173 6.90827 5.41027 6.4H10.5896C10.6383 6.90827 10.6667 7.4412 10.6667 8ZM8 14.9333C7.03707 14.9333 5.99213 13.2703 5.5508 10.6667H10.4492C10.0079 13.2703 8.96293 14.9333 8 14.9333ZM5.5508 5.33333C5.99213 2.72973 7.03707 1.06667 8 1.06667C8.96293 1.06667 10.0079 2.72973 10.4492 5.33333H5.5508ZM5.83027 1.41933C5.19613 2.35747 4.71773 3.71267 4.46627 5.33333H1.60147C2.3728 3.4896 3.9192 2.05107 5.83027 1.41933ZM1.2604 6.4H4.33787C4.2928 6.9148 4.26667 7.44787 4.26667 8C4.26667 8.55213 4.2928 9.0852 4.338 9.6H1.2604C1.13827 9.08533 1.06667 8.55147 1.06667 8C1.06667 7.44853 1.13827 6.91467 1.2604 6.4ZM1.60147 10.6667H4.46613C4.71773 12.2873 5.196 13.6427 5.83013 14.5807C3.91907 13.9489 2.3728 12.5104 1.60147 10.6667ZM10.1697 14.5807C10.8039 13.6425 11.2823 12.2873 11.5337 10.6667H14.3984C13.6272 12.5104 12.0809 13.9489 10.1697 14.5807ZM14.7396 9.6H11.662C11.7072 9.0852 11.7333 8.55213 11.7333 8C11.7333 7.44787 11.7072 6.9148 11.662 6.4H14.7395C14.8617 6.91467 14.9332 7.44853 14.9332 8C14.9332 8.55147 14.8617 9.08533 14.7396 9.6Z" fill="#333333"/>
</svg>
