<svg width="32" height="32" viewBox="0 0 32 32" fill="none" xmlns="http://www.w3.org/2000/svg">
<path d="M-0.000976563 15.9961C-0.000976563 24.8326 7.16247 31.9961 15.999 31.9961C24.8356 31.9961 31.999 24.8326 31.999 15.9961C31.999 7.15954 24.8356 -0.00390625 15.999 -0.00390625C7.16247 -0.00390625 -0.000976563 7.15954 -0.000976563 15.9961Z" fill="#4E7E76"/>
<path d="M17.0205 14.7749L22.663 8H21.3259L16.4265 13.8826L12.5134 8H8L13.9175 16.8955L8 24H9.33718L14.5111 17.7878L18.6437 24H23.157L17.0202 14.7749H17.0205ZM15.189 16.9738L14.5895 16.0881L9.81898 9.03974H11.8728L15.7227 14.728L16.3222 15.6137L21.3266 23.0075H19.2727L15.189 16.9742V16.9738Z" fill="white"/>
</svg>