<svg width="18" height="18" viewBox="0 0 25 24" fill="none" xmlns="http://www.w3.org/2000/svg">
<path d="M0 23.428L1.70766 17.4137C0.657679 15.6539 0.0980749 13.6547 0.103844 11.611C0.103844 5.20684 5.50373 0 12.1382 0C15.3574 0 18.3804 1.20843 20.6477 3.40255C22.9207 5.59666 24.1726 8.51472 24.1668 11.6165C24.1668 18.0207 18.7669 23.2275 12.1324 23.2275H12.1267C10.1133 23.2275 8.13445 22.7375 6.37487 21.813L0 23.428ZM6.67486 19.708L7.03832 19.9197C8.5729 20.7995 10.3325 21.2617 12.1267 21.2673H12.1324C17.6419 21.2673 22.1303 16.9403 22.1303 11.6165C22.1303 9.03819 21.0919 6.61575 19.2054 4.78918C17.3189 2.96261 14.8035 1.96022 12.1324 1.96022C6.61717 1.96022 2.1288 6.28719 2.1288 11.611C2.1288 13.432 2.65379 15.2084 3.65762 16.7454L3.89415 17.113L2.88456 20.6714L6.67486 19.708Z" fill="#ffffff"/>
<path d="M9.12673 6.74938C8.90174 6.26489 8.6652 6.25375 8.45175 6.24818C8.27867 6.24261 8.07675 6.24261 7.87483 6.24261C7.67292 6.24261 7.34985 6.31501 7.07293 6.60459C6.79601 6.89417 6.02295 7.59584 6.02295 9.02702C6.02295 10.4526 7.10177 11.8337 7.25177 12.0286C7.40177 12.2235 9.33442 15.2474 12.3863 16.4113C14.9247 17.3802 15.4439 17.1853 15.992 17.1352C16.5458 17.0851 17.7689 16.4335 18.0227 15.7541C18.2708 15.0748 18.2708 14.4956 18.1958 14.3731C18.1208 14.2506 17.9189 14.1782 17.6189 14.0334C17.3189 13.8886 15.842 13.1869 15.5651 13.0867C15.2881 12.9864 15.0862 12.9419 14.8901 13.2315C14.6882 13.5211 14.1112 14.1726 13.9382 14.3675C13.7651 14.5624 13.5863 14.5847 13.2863 14.4399C12.9863 14.2951 12.0171 13.9888 10.869 12.9976C9.97479 12.2291 9.36903 11.2768 9.19596 10.9872C9.02289 10.6977 9.17865 10.5417 9.32865 10.397C9.46134 10.2689 9.62864 10.0573 9.77864 9.89019C9.92864 9.72312 9.98056 9.60061 10.0786 9.4057C10.1767 9.21079 10.1306 9.04373 10.0556 8.89894C9.98056 8.75415 9.39211 7.32296 9.12673 6.74938Z" fill="#ffffff"/>
</svg>
